<?xml version="1.0" encoding="utf-8"?>
<svg xmlns="http://www.w3.org/2000/svg" viewBox="0 0 1000 612">
	<title>Plan A is the narrator’s sketch of the Vicarage and its walled garden, shown at the left end of a lane, above which is Miss Marple’s house, so neighboring the Vicarage to the right. A path opposite Miss Marple’s runs down towards the Old Hall with woods to the left. A studio is in the lower right corner of the Vicarage garden, visible from Miss Marple’s gate on the lane.</title>
	<path d="M344.136 609.879c-3.764-3.76-2.154-9.219 3.108-10.537 3.263-.818 8.834 1.345 10.057 3.906.912 1.91.86 2.532-.389 4.483-2.188 3.413-3.598 4.242-7.272 4.268-2.558.02-3.867-.482-5.508-2.12m8.823-2.204c1.079-.791 1.354-1.677.977-3.168-.667-2.653-2.527-3.346-5.96-2.212-2.029.667-2.727 1.371-2.727 2.75 0 3.04 4.866 4.705 7.71 2.63m42.586 3.044c-2.685-1.454-2.478-3.278.34-2.931 4.813.587 5.895.512 6.224-.445.237-.685-.566-1.017-2.445-1.017-1.799 0-3.342-.603-4.338-1.706-1.527-1.684-1.52-1.733.732-3.666 3.652-3.134 9.638-2.05 8.272 1.5-.264.689.083 1.431.804 1.706.728.279 1.267 1.45 1.267 2.758 0 1.77-.577 2.527-2.648 3.458-3.76 1.684-5.586 1.763-8.204.343m5.149-7.648c0-.452-.343-.817-.766-.817-.422 0-.996.365-1.271.813-.28.453.068.814.766.814.697 0 1.27-.365 1.27-.814m-34.653 7.742c-.452-.15-1.81-.49-3.021-.757-1.716-.377-2.324-1.1-2.727-3.244-.71-3.79.694-5.97 4.507-7 8.321-2.237 13.108 5.539 6.194 10.063-1.961 1.285-3.206 1.518-4.953.938m4.806-4.69c1.135-1.812-.253-4.257-2.452-4.321-4.18-.113-6.563 2.848-4.194 5.214 1.399 1.394 5.56.84 6.646-.893m7.174 3.665c-.396-.783-.792-3.111-.875-5.168-.215-5.048 1.022-5.99 7.054-5.372 3.674.376 5.066.934 6.507 2.6 2.35 2.723 2.308 3.789-.276 6.855-1.916 2.28-2.554 2.51-6.903 2.51-3.745 0-4.949-.31-5.507-1.425m9.936-4.215c1.21-2.712-1.004-4.49-4.723-3.794-2.686.505-2.923.78-2.923 3.36 0 2.811 0 2.811 3.432 2.506 2.55-.23 3.629-.761 4.214-2.072m-60.48 3.36c-1.494-1.492-5.059-11.595-5.059-14.338 0-.715.505-1.3 1.124-1.3 1.196 0 2.516 2.788 3.372 7.117.83 4.208 1.833 3.842 2.848-1.044 1.177-5.666 3.142-5.854 4.466-.43.483 1.982 1.271 3.734 1.75 3.896.483.158 1.683-1.921 2.671-4.626 1.067-2.916 2.275-4.912 2.972-4.912 1.622 0 1.547.497-1.433 9.372-2.24 6.668-2.86 7.765-4.262 7.561-1.223-.177-1.819-1.145-2.339-3.793-.78-3.96-1.943-3.64-2.346.64-.313 3.338-1.634 3.99-3.765 1.857m311.243-.392c-6.793-4.573-6.367-13.818.815-17.555 4.138-2.155 5.032-2.177 8.868-.222 5.379 2.743 6.186 4.22 5.62 10.292-.547 5.85-1.184 6.815-5.507 8.326-4.213 1.469-6.677 1.262-9.796-.84m10.943-3.692c2.527-2.796 2.553-6.096.056-9.05-2.018-2.395-2.595-2.636-5.45-2.252-3.799.509-7.114 3.334-7.114 6.061 0 1.074 1.07 3.025 2.384 4.336 2.874 2.871 7.928 3.32 10.12.905zm22.967 4.287a88 88 0 0 0-3.096-.727c-2.234-.494-2.275-.61-2.037-5.572l.241-5.063 3.942-.253c6.556-.414 9.667 3.135 7.042 8.036-.905 1.684-4.753 3.948-6.092 3.579m2.516-4.841c1.766-2.694.97-4.483-1.995-4.483-2.12 0-2.418.316-2.716 2.874-.189 1.582-.166 3.048.045 3.255 1.034 1.032 3.478.166 4.67-1.646zm-18.06 3.41c-.226-.589-.306-3.056-.181-5.49.18-3.45.547-4.483 1.66-4.694 1.207-.233 1.425.362 1.425 3.858 0 2.727.347 4.151 1.019 4.193 3.711.226 5.137.998 4.315 2.328-.785 1.266-7.74 1.1-8.238-.196m47.478.524c-.996-.999-.562-2.306 1.498-4.52 1.12-1.206 2.037-2.487 2.04-2.845 0-.354.887-1.744 1.97-3.09l1.96-2.444 2.15 2.015c2.905 2.713 5.67 8.978 4.482 10.145-.638.622-1.192.464-1.943-.553-1.576-2.133-8.26-1.986-9.437.203-.902 1.68-1.773 2.03-2.716 1.089m8.732-5.81c.223-.357.06-1.182-.358-1.834-.664-1.032-.856-1.032-1.524 0-.807 1.258-.43 2.486.762 2.486a1.509 1.507 0 0 0 1.12-.651m9.536 5.2c-.566-.679-.856-3.1-.71-5.9.197-3.752.544-4.8 1.672-5.014 1.222-.23 1.43.38 1.43 4.22v4.493l3.458.25c2.52.184 3.53.64 3.727 1.675.23 1.217-.377 1.428-4.172 1.428-2.84 0-4.79-.418-5.405-1.153m13.602.509c-1.098-.226-1.46-1.21-1.58-4.302-.34-8.868-.416-8.495 1.783-8.495 1.95 0 2.037.218 2.037 4.89v4.886l3.557-.23c4.014-.256 6.375 1.028 4.972 2.716-.811.972-7.077 1.28-10.77.535m-47.498-1.19c-.196-.558-.098-4.318.227-8.348.46-5.712.86-7.331 1.81-7.331.676 0 1.264.734 1.31 1.63.177 3.504.335 3.666 3.583 3.666h3.262v-3.258c0-2.683.28-3.259 1.585-3.259 1.452 0 1.584.63 1.603 7.659.011 4.211.124 8.152.253 8.755.132.633-.464 1.096-1.4 1.096-1.358 0-1.697-.678-2.037-4.065-.441-4.359-1.433-5.123-5.367-4.136-1.758.44-1.973.942-1.973 4.554 0 3.1-.294 4.054-1.249 4.054-.686 0-1.41-.456-1.607-1.017M7.013 586.936c-1.516-1.514-1.633-2.818-1.735-19.826a2591.371 2588.064 0 0 0-.181-20.645c-.038-1.345.011-3.18.102-4.072.09-.897-.083-17.209-.389-36.244-.306-19.036-.675-48.544-.822-65.564s-.423-33.698-.611-37.058c-.189-3.36.007-6.563.433-7.12.536-.69.37-1.164-.531-1.507-1.66-.64-1.72-1.96-.095-1.96a1.207 1.206 0 0 0 1.226-1.193c0-2.347 3.172-2.758 21.64-2.8 47.113-.109 159.01-1.145 159.375-1.476.366-.332.351-209.686-.015-247.98-.075-8.37.098-15.607.392-16.086.996-1.612 2.852-.881 3.482 1.372.992 3.533.788 264.664-.208 265.655-.546.55-23.5.987-66.862 1.28-92.958.63-113.085.999-113.756 2.091-.585.942-.476 27.396.452 107.867.302 25.978.604 55.302.672 65.157l.128 17.917 14.677-.05c41.398-.127 223.167-1.393 231.978-1.612 5.61-.139 12.625-.282 15.594-.316l5.401-.056-.21-12.42c-.114-6.83-.254-19.523-.303-28.206l-.094-15.784-10.675.38c-11.467.407-12.93-.008-13.013-3.692-1.113-49.38-1.762-176.78-.905-178.015a1.848 1.846 0 0 1 2.085-.64c1.094.422 1.306 2.045 1.306 10.013v9.512l25.076-.512c13.79-.283 25.733-.52 26.54-.528 1.35-.011 1.433-.727 1.048-8.77-.23-4.814-.618-31.294-.856-58.843-.241-27.55-.652-61.632-.913-75.744-.4-21.676-.29-25.9.71-27.229 1.074-1.431 2.323-1.578 13.884-1.627 9.053-.038 12.995.23 13.712.945.554.554.784 1.228.512 1.503-.275.272-5.937.678-12.587.904-6.646.227-12.27.588-12.493.81-.226.219-.407 6.755-.407 14.523v14.127l9.377-.316c8.072-.268 83.271-1.293 111.912-1.519l9.58-.075v-11.513c0-6.328-.225-12.654-.508-14.051l-.51-2.547H428.72c-8.951 0-10.901-.21-10.901-1.171 0-.648.332-1.38.739-1.632s5.805-.49 11.995-.535c10.358-.067 11.361.057 12.587 1.568 1.162 1.431 1.32 4.355 1.249 22.821-.046 11.645-.34 21.432-.653 21.745-.317.316-1.139.354-1.83.086-.961-.365-1.26-1.77-1.26-5.903v-5.425l-50.208.441c-27.615.241-50.447.678-50.741.964-.295.287-.445 10.311-.347 22.265l.18 21.74 29.155-.128c16.03-.068 38.787-.162 50.56-.204l21.402-.075v-5.65c0-5.764.524-6.94 2.72-6.1 1.075.415 1.244 4.212 1.27 28.48.023 18.927-.248 28.175-.833 28.537-.475.294-1.754.056-2.844-.524-1.086-.58-1.637-1.266-1.226-1.518.694-.433 1.222-7.602 1.007-13.713l-.094-2.66-23.036.215-23.035.219.004 32.307c0 17.77.226 32.534.505 32.813.275.275 10.366.49 22.42.474 19.936-.018 22.014-.15 22.972-1.454.743-.998 1.034-4.37.981-11.203a675.19 674.328 0 0 1-.038-10.79c.05-1.16 2.166-1.386 2.833-.301.245.388.683 6.167.977 12.835.43 9.832.32 12.304-.6 13.06-.792.66-10.44 1.018-32.522 1.214-30.942.267-31.394.248-31.394-1.356 0-1.432.626-1.658 5.182-1.873l5.187-.245-.46-26.227c-.257-14.424-.48-26.355-.498-26.513-.019-.162-.558-.087-1.2.154-.64.249-12.659.539-26.705.644-14.044.113-31.365.354-38.49.547l-12.957.346.66 22.106c.362 12.157.604 23.018.54 24.14-.068 1.12.064 2.867.29 3.884l.407 1.846 26.103-.143c25.736-.143 28.765.132 27.31 2.479-.378.618-16.926.874-55.234.859-30.082-.012-54.82.098-54.97.248-.532.535-.532 5.433.011 48.654.302 23.963.676 57.864.83 75.336.162 17.469.328 31.844.377 31.938.05.095 43.842.02 97.322-.165l97.239-.34.407-34.997c.226-19.243.611-35.193.86-35.441.596-.596 26.242-1.157 56.863-1.244l24.703-.067-.241-30.842-.242-30.846 6.526-.505a222.549 222.265 0 0 1 13.862-.52c12.817-.019 29.395-2.23 50.145-6.683 4.262-.912 11.965-2.562 17.125-3.658 5.156-1.1 10.844-2.34 12.636-2.758a386 386 0 0 1 7.34-1.6c2.241-.464 5.726-1.217 7.744-1.673 2.018-.46 6.3-1.032 9.517-1.274l5.847-.44 2.123 4.475 2.12 4.48-.019 36.534c-.037 60.678-.63 105.62-1.422 108.205-.41 1.345-1.086 2.354-1.505 2.241-.452-.12-.814-27.29-.905-68.412-.075-37.521-.385-70.861-.679-74.093-.362-4.05-1.041-6.529-2.169-7.964-1.837-2.336-2.414-2.317-13.719.426a509.221 508.572 0 0 1-14.27 3.157c-4.484.919-12.186 2.618-17.124 3.774-15.363 3.598-23.526 5.165-33.835 6.499l-9.377 1.22c-4.036.528-13.711 1.194-21.5 1.492l-14.16.535.01 65.768c.009 36.176-.24 65.926-.55 66.118-1.17.723-55.238 1.394-149.304 1.86-53.593.264-99.788.423-102.663.359l-5.22-.12.468 29.27c.347 21.846.226 29.467-.49 30.047-.585.475-50.832.969-131.006 1.281-71.533.275-132.5.716-135.484.972-4.715.407-5.646.256-7.053-1.153zm488.264-64.908c35.306-.532 37.23-.618 38.342-1.73.74-.734 1.283-36.737.566-37.453-.215-.215-.633.897-.928 2.471-.648 3.455-3.108 5.357-6.921 5.357-3.497 0-6.601-2.686-6.601-5.722 0-3.549 1.573-7 3.704-8.137 2.542-1.36 8.147.278 9.6 2.806.833 1.454 1.026.897 1.376-4.03.227-3.143.29-9.238.151-13.548l-.256-7.832-20.535.298c-40.127.58-56.328 1.138-57.157 1.97-.532.528-.792 10.111-.72 26.672.176 43.12-.031 39.122 2.074 39.518 1.01.188 2.384.234 3.055.102.68-.132 16.088-.464 34.25-.739m-32.413-31.554c-1.807-.58-2.648-1.36-2.648-2.456 0-1.352.355-1.514 2.24-1.017 1.234.32 3.712.64 5.508.704 2.825.102 3.293-.131 3.523-1.759.388-2.724-1.132-4.076-5.266-4.698-6.318-.945-7.8-4.385-3.666-8.513 2.06-2.054 2.817-2.298 6.242-2.02 2.147.174 4.187.784 4.542 1.357.728 1.175-.71 3.337-1.78 2.674-1.841-1.13-6.337-1.073-7.31.098-1.32 1.59-.593 2.208 4.809 4.099 5.59 1.955 7.359 4.739 5.409 8.514-1.973 3.805-5.93 4.837-11.603 3.017m29.965.41c-2.309-.896-3.206-3.07-3.233-7.805-.019-4.083.17-4.705 1.396-4.468 1.105.215 1.433 1.104 1.445 3.93.019 4.467.716 5.688 3.266 5.688 2.516 0 3.651-2.155 3.651-6.935 0-5.711 1.973-4.321 2.286 1.608.208 3.967-.037 5.033-1.569 6.657-1.75 1.86-4.549 2.373-7.242 1.326m11.618-1.126c-.611-.626-1.019-3.244-1.019-6.578v-5.538h3.52c4.488 0 7.083 2.215 7.083 6.05 0 1.5-.64 3.511-1.43 4.472-1.727 2.11-6.69 3.082-8.15 1.594m6.336-4.001c1.143-2.132.344-4.634-1.678-5.274-2.188-.693-3.267.165-2.867 2.29.181.987.359 2.434.392 3.217.087 1.986 3.056 1.82 4.157-.233zm-31.816-.34c0-4.113-.197-4.633-2.037-5.33-3-1.141-2.482-2.43 1.018-2.543l5.488-.203c3.35-.147 3.972 2.513.68 2.89-2.204.252-2.294.44-2.294 4.72 0 3.597-.275 4.513-1.426 4.746-1.222.241-1.43-.373-1.43-4.28m36.34-.564c-.46-4.043-.317-5.26.74-6.314 1.923-1.921 2.515-.324 2.195 5.94-.362 7.15-2.143 7.377-2.935.374m14.258 1.706c1.177-1.175 1.505-2.2 1.106-3.458-1.159-3.647-5.36-5.022-7.352-2.404-1.494 1.967-1.396 2.905.554 5.387 2.037 2.581 3.463 2.702 5.692.475M390.166 305.406c.038-.904.015-3.338-.056-5.406-.22-6.48-.453-6.411 23.077-6.498 11.293-.038 22.089-.011 23.997.056l3.463.14V273l-42.198.584c-23.205.324-50.016.561-59.57.527 0 0-18.936-.086-25.967-.086h-2.98l.535 9.9c.295 5.447.532 12.985.532 16.756v6.857l39.546-.25c39.048-.236 39.55-.263 39.621-1.89zm-8.687-15.434c-2.108-1.537-.694-3.04 2.358-2.509 1.426.245 3.1.113 3.726-.301 1.947-1.281.355-3.169-3.176-3.768-3.889-.655-5.937-3.465-4.115-5.65 1.245-1.5 5.794-2.438 8.167-1.684 2.742.866 1.478 2.335-2.064 2.396-4.549.075-4.262 2.11.457 3.24 3.244.783 3.696 1.167 3.911 3.33.132 1.345-.237 3.04-.818 3.767-1.411 1.778-6.631 2.505-8.45 1.179m16.865-.407q-1.049-.648-.577-3.613c.434-2.727.313-2.964-1.513-2.964-2.365 0-3.281-1.115-1.87-2.276 1.206-.994 9.007-.633 9.365.433.136.415-.607 1.138-1.66 1.617-1.58.72-1.848 1.348-1.572 3.71.354 3.014-.45 4.156-2.173 3.09m4.798.067c0-.938 4.262-6.702 6.27-8.476 1.546-1.367 1.674-1.367 2.84 0 1.486 1.744 4.752 7.128 4.752 7.836 0 .286-.55.516-1.226.516-.671 0-1.222-.366-1.222-.814 0-1.333-7.82-.98-8.97.407-1.109 1.337-2.444 1.624-2.444.527zm8.317-5.172c-.762-.761-1.2-.761-1.961 0-.758.76-.54.98.98.98 1.525 0 1.74-.22.981-.98m8.148.772c.313-5.383 1.8-5.248 2.127.192.2 3.308 0 4.084-1.063 4.084-1.064 0-1.264-.791-1.06-4.276m6.525-.407c.238-4.483.347-4.694 2.588-4.95 5.134-.584 8.589 2.306 6.197 5.184-.535.64-.762 1.725-.501 2.403.596 1.549-2.739 1.714-4.255.215-.826-.817-1.188-.735-1.833.407-1.562 2.761-2.44 1.454-2.192-3.259zm5.885-.904c.237-.384.237-.896 0-1.13-.642-.64-3.599.275-3.599 1.111 0 .927 3.029.942 3.599.02M332.8 271.116l2.637-.414-.189-22.159-.196-22.159-3.462-.248c-2.15-.155-3.467.094-3.467.652 0 .497-1.071 1.277-2.38 1.732-2.47.86-3.81 2.766-2.508 3.568.407.252 1.478 0 2.372-.554 2.026-1.266 3.12-.339 1.664 1.41-.906 1.088-.89 1.42.083 2.022 1.746 1.078.068 2.227-3.716 2.547l-3.263.275-.249-3.428c-.135-1.891.17-4.212.68-5.161.509-.954.69-1.97.4-2.26-.291-.29-2.89-.724-5.772-.965l-5.25-.44v46.55l9.988-.278c5.496-.151 11.176-.464 12.628-.69m-13.488-.915c-2.479-.486-4.055-3.794-2.626-5.512 1.505-1.808 3.976-1.533 7.024.791 1.47 1.12 3.41 2.035 4.311 2.035 1.577 0 3.093 1.356 2.35 2.098-.554.554-8.947.998-11.06.588m2.901-2.89c-.513-1.544-3.055-1.759-3.055-.263 0 .753.694 1.28 1.697 1.28.996 0 1.558-.421 1.358-1.017m1.6-3.54c-1.698-1.108-2.882-2.352-2.63-2.755.25-.403 2.102-1.56 4.12-2.561 2.76-1.383 3.892-1.598 4.601-.89s.604 1.067-.422 1.458c-1.475.566-1.863 4.013-.543 4.826.449.279.815.848.815 1.27 0 1.356-2.765.727-5.941-1.349m-1.841-7.719c-.302-.482.23-1.695 1.173-2.697 2.173-2.31 2.154-2.77-.117-3.09-3.282-.466-1.935-1.883 2.037-2.139 3.35-.215 3.874-.038 3.874 1.3 0 .851-.743 2.222-1.649 3.04-1.127 1.017-1.384 1.755-.818 2.324.46.46.837 1.13.837 1.484 0 .98-4.715.784-5.337-.222m-1.188-13.377c0-3.443.897-4.698 2.037-2.852.279.452 1.403.818 2.497.818 1.226 0 1.991.467 1.991 1.22 0 .742-.762 1.22-1.942 1.22-1.26 0-2.097.577-2.373 1.628-.792 3.018-2.21 1.71-2.21-2.034m358.427 333.2c-.716-2.467-1.667-4.708-2.112-4.98-1.17-.726-.98-3.04.219-2.644.558.185 1.471 1.224 2.026 2.306.837 1.638 1.01-.475 1.018-12.432.011-13.347.513-16.723 2.23-15.009.263.264.433 6.804.38 14.542-.068 9.873.151 13.637.732 12.631.453-.784 1.358-1.424 2.01-1.424 1.445 0 1.528-.61-.777 5.7-2.5 6.856-4.01 7.203-5.726 1.31m-341.536-30.321c-.28-.28.667-2.072 2.105-3.994 1.437-1.917 3.24-4.622 4.002-6.008.765-1.387 1.961-2.524 2.659-2.524 1.388 0 7.238 11.113 6.488 12.318-.74 1.198-3.606.792-3.606-.508 0-.904-.955-1.22-3.697-1.22-2.527 0-3.84.384-4.16 1.22-.472 1.224-2.837 1.669-3.791.716m10.018-6.48c0-.753-.554-1.168-1.358-1.017-2.048.4-2.327 2.302-.34 2.302 1 0 1.698-.528 1.698-1.281m10.158 6.114c-.694-1.119-1.105-8.04-.57-9.512.714-1.96 2.641-1.07 2.656 1.22.023 4.883.755 5.907 4.217 5.907 2.633 0 3.18.264 2.958 1.424-.212 1.097-1.238 1.48-4.474 1.67-2.565.15-4.428-.125-4.79-.709m15.318-.068c-.577-.576-1.015-3.066-1.015-5.794 0-4.117.2-4.746 1.426-4.513 1.075.2 1.49 1.217 1.675 4.084.241 3.76.29 3.82 3.262 4.068 2.026.166 3.018.648 3.018 1.47 0 1.586-6.899 2.154-8.366.685m-54.016-5.398c-2.15-7.052-2.421-10.356-.867-10.356.766 0 1.66 1.921 2.576 5.56.773 3.055 1.558 5.711 1.747 5.9.188.188 1.23-1.948 2.316-4.747 1.105-2.848 2.474-5.086 3.108-5.086.671 0 1.535 1.586 2.12 3.884.543 2.136 1.188 4.08 1.433 4.325.241.245 1.301-1.77 2.354-4.48 1.954-5.032 3.968-7.093 3.968-4.057 0 .912-.683 3.376-1.52 5.474a101.844 101.714 0 0 0-2.263 6.258c-.562 1.85-1.226 2.444-2.743 2.444-1.773 0-2.104-.512-2.912-4.483l-.912-4.475-1 2.441a31.308 31.268 0 0 0-1.449 4.683c-.339 1.68-.931 2.241-2.365 2.241-1.655 0-2.138-.75-3.594-5.526m382.104-15.65c-1.207-3.393-2.014-42.357-2.44-117.686-.132-23.236-.475-33.012-1.283-36.41-1.531-6.487-.396-8.07 7.473-10.398 3.27-.968 7.634-2.275 9.698-2.908 2.063-.63 8.302-2.087 13.862-3.236s11.025-2.411 12.146-2.8c1.12-.387 7.725-1.86 14.676-3.269s15.39-3.259 18.755-4.114a331.937 331.513 0 0 1 14.677-3.217 1829.425 1827.09 0 0 0 10.6-2.09c6.151-1.267 38.975-7.264 50.959-9.306 4.677-.802 22.19-3.07 31.806-4.125 3.583-.395 7.298-.889 8.245-1.092.95-.211 4.987-.626 8.97-.92 3.983-.293 8.615-.885 10.29-1.318 6.73-1.73 30.15-2.735 64.049-2.75 18.909-.008 22.368.173 23.01 1.21q.753 1.224-.333 2.309c-.879.877-3.564.941-14.036.339-7.121-.415-18.452-.468-25.181-.121a2372.595 2369.567 0 0 1-24.462 1.1c-6.725.264-15.163.829-18.754 1.258-3.584.43-8.906.999-11.822 1.266-2.916.264-8.789 1.017-13.047 1.661-4.263.648-12.335 1.718-17.94 2.381-15.586 1.835-17.28 2.068-20.791 2.84-1.796.4-8.216 1.485-14.27 2.415-17.204 2.645-23.673 3.873-49.33 9.362a2620 2620 0 0 1-19.57 4.087c-5.382 1.097-11.07 2.393-12.636 2.875-1.572.482-6.525 1.574-11.014 2.426-12.157 2.31-40.292 9.53-41.71 10.702-.906.754-1.087 1.794-.665 3.922.314 1.594.71 14.805.883 29.365.17 14.56.528 40.4.8 57.42.867 54.832.826 67.324-.219 68.74-.841 1.138-1.018 1.149-1.396.075zm-27.068-9.067c-.177-.286-.4-3.172-.494-6.415-.158-5.297.02-6.054 1.709-7.422 4.813-3.895 9.86-.071 9.86 7.46v3.367l3.47-.271c3.01-.241 3.463-.06 3.463 1.356 0 1.5-.679 1.658-8.845 2.035-4.866.226-8.99.173-9.166-.114zm7.658-6.931c-.464-7.045-5.549-6.845-5.549.218 0 3.541.019 3.564 2.897 3.564h2.897zm-139.682-10.063c-.852-1.375.219-2.203 4.097-3.18 4.172-1.05 4.164-2.2-.02-2.983-4.265-.798-5.137-2.418-2.134-3.967 1.354-.7 3.029-1.273 3.727-1.273 2.621 0 1.12-1.47-2.407-2.358-2.806-.708-3.67-1.304-3.67-2.543 0-1.76.867-2.012 3.07-.897 2.954 1.504 5.583 2.506 8.291 3.161 4.38 1.055 3.927 2.411-1.32 3.937-3.817 1.111-4.425 1.507-3.108 2.019.894.35 2.648.663 3.896.697 2.528.068 3.708 1.929 2.294 3.632-.51.61-2.577 1.57-4.598 2.136-2.022.565-3.87 1.344-4.112 1.732-.596.961-3.387.886-4.006-.113m141.583-3.296c-5.081-4.242-5.489-5.515-2.309-7.214 3.293-1.763 5.273-2.984 6.56-4.05.698-.58 1.656-.821 2.123-.53 1.132.696 1.094 3.687-.037 3.687-.958 0-.638 7.079.467 10.383 1.019 3.04-1.407 2.23-6.804-2.276m2.335-4.035c0-1.717-1.189-2.192-2.037-.817-.596.964.173 2.449 1.267 2.449.423 0 .77-.739.77-1.632m-131.281-8.75c-1.766-.58-8.152-6.883-8.152-8.044 0-.538 1.192-1.955 2.648-3.145l4.085-3.33c1.562-1.266 3.867-1.568 3.867-.505 0 .361-.54 1.371-1.2 2.237-1.66 2.197-1.592 8.405.117 10.292 1.497 1.65.668 3.165-1.365 2.494m-2.852-8.353q-.596-.956-1.407-.143a1.509 1.507 0 0 0-.226 1.77q.596.958 1.407.144a1.509 1.507 0 0 0 .226-1.77m128.15 6.785c-.298-.297-.543-2.89-.543-5.76 0-4.528.189-5.184 1.43-4.946.784.15 1.542 1.092 1.686 2.094.226 1.598.743 1.827 4.145 1.827 4.278 0 5.081.392 4.406 2.148-.31.806-1.517 1.119-3.863.998-4.153-.215-5.337.414-4.779 2.554.419 1.597-1.245 2.325-2.482 1.085m2.516-15.513c-2.652-.403-3.278-3.489-.71-3.489.906 0 1.74-.753 2.03-1.834.838-3.112.585-3.88-1.524-4.683-4.202-1.593-1.878-3.258 4.55-3.258 4.401 0 5.71 1.842 1.972 2.78-1.83.456-2.037.923-2.037 4.509 0 3.485.227 4.03 1.773 4.26.97.144 1.92.717 2.105 1.282.336 1.02-3.067 1.205-8.159.433m-135.804-3.285c.212-1.074 1.09-1.428 3.527-1.428h3.24v-3.665c0-3.12.242-3.662 1.63-3.662 1.863 0 2.512 2.92 1.66 7.459l-.51 2.72h-4.915c-4.247 0-4.877-.196-4.632-1.424m.495-10.887c-1.962-1.213-.012-2.958 2.942-2.634l2.923.324v-4.09c0-3.128.294-4.092 1.245-4.092 2.414 0 3.904 7.892 1.81 9.58-1.252 1.013-7.69 1.669-8.92.908zm-257.006-62.468c-.253-.41-.234-3.187.045-6.178.596-6.382 2.1-6.845 2.716-.833.403 3.975.434 4.012 3.511 4.265 2.403.196 3.048.569 2.848 1.63-.196 1.037-1.293 1.432-4.462 1.617-2.308.132-4.406-.087-4.658-.501m11.44.038c-.502-.81-.49-8.326.011-10.172.215-.78.913-1.424 1.558-1.424.868 0 1.17 1.13 1.17 4.434v4.434l3.455.249c2.523.18 3.53.637 3.73 1.676.234 1.228-.403 1.424-4.636 1.424-2.697 0-5.077-.279-5.288-.621m-40.907-7.079c-.755-3.39-1.15-6.74-.88-7.444.668-1.737 2.573-.942 2.347.98-.249 2.147 1.497 6.253 2.316 5.44.37-.374.8-1.496.95-2.502.604-3.93 3.848-4.423 3.848-.584 0 3.085 1.41 3.127 2.422.075.505-1.533 1.448-3.228 2.093-3.76 2.014-1.672 2.301 1.161.524 5.177-.886 2-1.867 4.796-2.18 6.212-.788 3.594-3.176 3.067-3.53-.784-.4-4.332-1.464-4.592-2.773-.674-1.912 5.734-3.534 5.06-5.137-2.128zm13.473 5.56c0-.286 1.283-2.298 2.852-4.482 1.57-2.185 2.855-4.363 2.855-4.841 0-.479.634-.754 1.411-.603 1.177.226 5.703 7.798 5.877 9.829.098 1.156-3.263.606-3.734-.61-.596-1.557-2.788-1.568-4.829-.03-1.599 1.205-4.432 1.676-4.432.73zm8.152-4.735c0-.859-1.566-1.22-2.03-.467-.283.452.06.829.758.829.702 0 1.272-.162 1.272-.362m248.156 3.97c-.697-1.815 1.057-3.424 2.335-2.147 1.471 1.47 3.75 1.18 4.7-.595 1.452-2.712 1.019-4.125-1.256-4.125-1.558 0-2.025-.37-1.826-1.428.151-.783 1.057-1.537 2.022-1.672 3.735-.535 5.941 7.108 2.86 9.896-1.977 1.786-8.16 1.835-8.835.068zm3.961-12.894c-1.456-1.432-1.758-2.366-1.328-4.088.69-2.739 5.515-5.417 7.027-3.906.725.723.627 1.31-.414 2.46-1.52 1.676-1.815 4.67-.54 5.462.457.279.619.851.362 1.27-.803 1.292-3.142.742-5.11-1.198zm-2.603-13.11c0-3.892 1.279-4.83 3.282-2.415.573.686 1.803 1.145 2.73 1.017 1.08-.15 1.796.283 1.977 1.19.212 1.067-.256 1.428-1.84 1.428-1.17 0-2.339.55-2.595 1.22-.257.671-1.162 1.221-2.01 1.221-1.287 0-1.547-.61-1.547-3.665m-109.88-5.84c-2.119-.85-.803-8.528 1.755-10.235 1.697-1.134 5.13-.621 6.586.984 1.444 1.593 1.475 1.593 3.685.03 1.222-.87 2.46-1.349 2.746-1.066 1.17 1.167.362 2.655-2.335 4.32-1.569.969-2.855 2.283-2.855 2.916 0 .78.935 1.157 2.855 1.157 1.992 0 2.856.37 2.856 1.22 0 .999-1.31 1.21-7.137 1.157-3.923-.038-7.593-.249-8.155-.475zm7.138-3.668c0-1.797-2.117-4.747-3.41-4.747-1.034 0-2.331 3.85-1.78 5.285.27.705 1.478 1.228 2.828 1.228 1.879 0 2.362-.357 2.362-1.77m104.1 2.038c-.302-.298-.544-1.409-.544-2.468 0-2.422 2.328-3.435 3.67-1.6 1.453 1.98 2.037 1.668 2.037-1.09 0-2.99 1.404-3.22 2.128-.346.871 3.477-.83 6.046-4.014 6.046-1.505 0-2.98-.24-3.281-.542m-132.68-1.45c-.427-.426-.774-2.472-.774-4.544 0-8.894 9.611-9.896 9.928-1.032.11 3.078.362 3.48 2.478 3.944 1.298.283 2.214.942 2.04 1.462-.388 1.157-12.53 1.307-13.673.17m6.401-4.653c.163-1.861-.207-3.232-1.056-3.937-1.716-1.424-2.9-.207-3.398 3.504-.31 2.286-.087 2.942 1.093 3.243 2.52.64 3.109.151 3.361-2.81m272.004 5.01c-1.287-1.296-.49-19.566.924-21.058 2.124-2.25 2.625-.15 2.21 9.233l-.415 9.38 2.686-1.34c3.485-1.734 8.551-1.933 8.551-.328 0 .651-1.26 1.491-2.855 1.906-1.57.403-3.218 1.036-3.667 1.401-1.493 1.225-6.487 1.767-7.43.81m-361.736-2.219c-3.014-1.232-3.908-2.851-2.173-3.925.49-.302 1.294-.14 1.796.358 1.433 1.431 7.653 1.145 8.238-.38 1.342-3.493-.351-5.576-5.145-6.345-3.776-.602-6.247-3.443-5.38-6.182.725-2.275 4.527-4.106 8.533-4.106 2.991 0 3.3.196 3.3 2.068 0 1.786-.207 1.952-1.576 1.22-2.279-1.22-4.632-1.035-6.149.476-1.935 1.932-1.203 2.889 3.033 3.963 4.825 1.22 6.028 2.256 6.68 5.722.619 3.285-.928 6.17-4.073 7.602-2.539 1.157-3.23 1.112-7.084-.47m32.001 0c-3.508-.641-4.073-1.707-4.073-7.648 0-4.434.252-5.602 1.222-5.602.935 0 1.222 1.032 1.222 4.381 0 4.834 1.166 6.502 4.236 6.065 1.667-.233 1.924-.813 2.286-5.15.332-3.955.679-4.885 1.837-4.885.784 0 1.426.275 1.426.61v5.538c0 4.852-.042 4.946-2.83 6.11-1.554.648-2.93 1.13-3.055 1.066a26.404 26.37 0 0 0-2.27-.486m29.928.075c-.313-.313-.574-1.771-.574-3.24 0-1.639-.97-4.11-2.497-6.374-2.27-3.36-2.572-5.342-.818-5.342.362 0 1.535 1.28 2.602 2.844 2.377 3.488 3.463 3.571 5.33.414 1.418-2.4 4.353-3.39 4.353-1.469 0 .543-1.192 2.212-2.648 3.715-2.131 2.2-2.652 3.401-2.652 6.136 0 2.423-.362 3.474-1.263 3.647-.694.132-1.52-.011-1.833-.328m-45.106-5.47.49-5.308-2.237-.256c-1.327-.15-2.236-.753-2.236-1.477 0-.922 1.188-1.284 4.801-1.469 2.64-.14 5.296-.06 5.9.17 1.773.678.317 2.927-1.894 2.927-1.972 0-2.018.14-1.746 5.09.264 4.821.177 5.104-1.645 5.364-1.897.264-1.916.188-1.433-5.037zm27.75 4.076c-.23-.602-.309-3.605-.177-6.667.23-5.237.37-5.595 2.396-6.133q5.507-1.466 7.581 2.908c1.856 3.906 1.577 6.325-1.01 8.8-2.535 2.426-8.012 3.104-8.79 1.092m6.236-3.002c3.017-1.612 1.365-7.3-2.12-7.3-1.826 0-2.01.32-2.01 3.525 0 4.72.874 5.515 4.13 3.775m326.339 1.047c.234-.783 1.61-4.174 3.063-7.534 3.527-8.16 3.874-9 4.82-11.607 1.302-3.582 3.527-2.848 6.164 2.034 1.267 2.355 2.565 4.46 2.874 4.687 1.173.844 4.09 7.417 3.621 8.17-.905 1.47-2.874.796-3.651-1.25-.97-2.543-2.882-2.595-7.797-.21-2.614 1.269-4.1 2.636-4.873 4.482-.766 1.835-1.652 2.652-2.878 2.652-1.302 0-1.656-.376-1.343-1.424m13.428-11.136c.159-.158-.433-1.472-1.316-2.92l-1.603-2.636-1.188 2.34a33.948 33.905 0 0 0-1.773 4.211c-.577 1.869-.577 1.869 2.504.584 1.698-.708 3.214-1.417 3.376-1.579m-137.984 7.343c-2.49-2.343-2.866-3.138-2.406-5.094.766-3.288 3.651-5.978 7.302-6.8 3.46-.78 4.455-.489 4.455 1.278 0 .708-.803 1.171-2.025 1.171-1.113 0-3.18 1.033-4.595 2.295-2.218 1.977-2.44 2.524-1.644 4.015 2.1 3.918 6.955 3.24 7.989-1.118.852-3.61 2.184-3.673 2.723-.132l.408 2.678 2.444-4.671c1.347-2.573 2.923-4.86 3.508-5.086 2.625-1.006 8.302 6.088 7.19 8.989-.483 1.254-.672 1.254-2.547.03-2.369-1.552-5.333-1.063-7.4 1.22-.778.856-2.045 1.556-2.822 1.556s-2.463.55-3.746 1.217c-3.557 1.853-5.609 1.492-8.837-1.545zm19.954-6.544c0-.859-1.565-1.22-2.033-.467-.283.452.057.829.758.829.702 0 1.272-.166 1.272-.362m-56.298-.252c-.415-112.1-1.27-208.65-1.86-209.238-.154-.154-60.612-.241-134.347-.188-73.735.045-135.347.053-136.916.008-5.47-.15-5.074-7.079-4.95 87.286.084 63.225-.128 86.11-.807 86.532-2.957 1.824-3.017.497-3.575-82.29-.302-44.348-.604-83.338-.664-86.642-.2-10.07-9.393-9.08 83.686-9.057 44.004.008 106.706.012 139.33.008l59.323-.008V2h191.44l.068 66.581c.057 59.899.973 235.032 1.23 235.27.06.048 6.16-1.138 13.56-2.645 7.397-1.507 15.103-2.95 17.125-3.202 2.014-.253 4.768-.788 6.11-1.19 1.347-.4 6.3-1.308 11.011-2.02 4.708-.708 11.497-1.82 15.085-2.464 13.9-2.501 36.249-6.253 44.03-7.387 4.489-.656 9.438-1.507 11.01-1.903 1.57-.388 5.421-.941 8.563-1.228 3.139-.286 9.559-1.04 14.266-1.672 20.644-2.78 27.973-3.666 40.36-4.868 17.125-1.657 22.187-2.098 29.358-2.524 19.26-1.156 60.352-1.578 62.789-.64 2.158.829 1.309 2.648-1.433 3.066-1.456.227-15.258.615-30.667.863-15.416.249-28.282.614-28.595.806-.314.196-3.935.422-8.042.505-8.77.177-29.875 2.28-52.76 5.252-8.97 1.167-18.878 2.448-22.017 2.851s-8.46 1.262-11.821 1.914c-3.365.652-9.789 1.597-14.27 2.098a301.76 301.376 0 0 0-12.64 1.666 1543 1543 0 0 1-10.192 1.668c-3.138.505-6.808 1.236-8.155 1.624-1.346.392-8.864 1.65-16.714 2.803-7.85 1.149-16.174 2.592-18.501 3.202-2.328.618-4.398.957-4.598.753-.419-.418-25.431 4.423-27.864 5.399-.898.358-5.119 1.28-9.377 2.053s-11.233 2.28-15.492 3.349c-4.262 1.066-13.251 3.232-19.977 4.807-6.725 1.575-14.07 3.41-16.31 4.068-2.24.66-6.827 1.797-10.192 2.525-8.336 1.8-12.926 2.81-16.306 3.593-13.62 3.165-17.125 3.285-16.08.566.29-.746 2.131-1.447 4.775-1.809 2.369-.324 4.874-.878 5.564-1.224.69-.347 4.187-1.258 7.778-2.023a675.19 674.328 0 0 0 16.306-3.797 1998 1998 0 0 1 14.27-3.451c2.467-.577 6.872-1.65 9.784-2.389 4.847-1.224 9.543-2.203 29.154-6.065l6.726-1.33.037-8.585c.113-24.517-.135-75.14-.479-97.77-.415-27.252-1.32-147.942-1.23-163.704.03-5.153.283-13.855.559-19.344l.505-9.976-55.754-.018c-97.65-.03-127.4.037-127.663.3-.427.427-.29 188.67.15 207.807.23 9.855.415 42.253.415 71.995l-.004 54.078 10.803-.576c5.941-.317 11.72-.645 12.844-.731 2.799-.211 3.293 1.247.815 2.41-2.622 1.233-15.013 2.724-22.628 2.728h-5.911zm-104.967 5.293c-.457-.558-1.2-2.362-1.649-4.009-.894-3.27.114-5.594 3.116-7.203 2.131-1.137 6.975.908 7.721 3.267.85 2.674-.275 7.206-2.018 8.137-2.135 1.145-6.17 1.036-7.17-.189zm5.835-2.946c2.7-2.984-1.392-7.663-4.225-4.83-1.357 1.356-1.225 3.104.37 4.86 1.686 1.865 2.139 1.86 3.855-.038zm163.43 1.913c-.23-.23-.245-2.252-.03-4.486.377-3.892.31-4.058-1.547-3.854-1.23.132-1.939-.211-1.939-.942 0-1.337 7.831-3.778 9.759-3.04 1.882.72 1.5 1.917-.792 2.49-1.856.467-2.037.9-2.037 4.89 0 3.24-.336 4.505-1.29 4.87-1.566.604-1.592.604-2.124.076zm121.55-.128a5.28 5.274 0 0 1 0-1.296c.06-.339.143-4.494.195-9.225.068-6.744.347-8.699 1.287-9.057.754-.29 3.27 1.598 6.835 5.131 3.104 3.074 5.661 5.414 5.688 5.203.026-.211.15-2.585.275-5.274.362-7.768.389-7.874 1.848-7.591 1.17.226 1.355 1.405 1.294 8.205-.098 11.373-.075 11.196-1.494 11.196-.712 0-3.526-2.392-6.254-5.32-2.727-2.927-5.246-5.033-5.601-4.682-.35.35-.747 3.383-.879 6.74-.204 5.044-.49 6.144-1.67 6.366-.785.15-1.472-.027-1.525-.396m-111.388-2.426c-1.29-.52-.472-9.983.996-11.554 1.482-1.582 6.525-1.684 6.525-.128 0 .727-.905 1.326-2.244 1.477-1.234.143-2.24.55-2.24.904 0 .358.916.475 2.036.264 3.033-.584 2.69 2.098-.407 3.176-2.682.934-3.448 2.821-.815 2.011l3.263-1.006c1.128-.346 1.63-.128 1.63.716 0 1.42-1.374 2.633-3.67 3.24a45.264 45.206 0 0 0-2.852.866c-.676.242-1.675.257-2.226.034zm-203.474-.768c-1.162-1.157.442-1.96 3.93-1.96 3.46 0 3.622-.105 3.622-2.372 0-1.308.46-2.555 1.018-2.773 1.14-.445-2.391-3.843-6.11-5.88-1.238-.679-2.245-1.93-2.245-2.78 0-1.485 3.863-4.925 5.53-4.925.438 0 1.249-.55 1.81-1.22 1.272-1.53 3.26-1.594 3.26-.102 0 .618-.551 1.582-1.223 2.136-1.584 1.319-1.667 7.802-.105 8.4.815.314 1.094 1.956 1.018 5.99l-.098 5.565-4.926.237c-2.708.132-5.175-.011-5.48-.316M409.648 320c0-.7-.366-1.043-.815-.768-.453.279-.819.847-.819 1.27 0 .421.37.768.819.768s.815-.573.815-1.27m335.727 12.997c-.332-.328-.603-4.89-.603-10.134 0-7.12.286-9.775 1.131-10.472 1.71-1.42 10.456-3.496 11.275-2.679q1.479 1.466-5.066 3.647c-3.583 1.194-4.692 2.69-3.772 5.078.377.987.837.98 3.248-.03 2.293-.957 2.972-.98 3.685-.113.98 1.179-.264 2.968-2.063 2.968-.559 0-1.954.426-3.097.946-1.697.776-2.075 1.514-2.075 4.072 0 1.722.302 3.127.68 3.127.376 0 2.994-.757 5.827-1.688 4.172-1.367 5.273-1.48 5.828-.61 1.162 1.83.822 2.208-2.754 3.078-1.908.463-4.568 1.247-5.914 1.744-3.81 1.405-5.673 1.718-6.33 1.066m-317.512-7.308c-1.822-1.82-2.026-2.536-1.558-5.474 1.056-6.581 5.318-8.235 9.554-3.707 1.32 1.413 2.203 3.093 1.958 3.73-.245.636-.445 1.853-.445 2.693 0 2.08-3.139 4.852-5.492 4.852-1.056 0-2.867-.941-4.017-2.094m5.269-1.326c1.373-1.371 1.218-5.952-.245-7.165-2.705-2.246-4.862 2.768-2.83 6.566.982 1.823 1.706 1.966 3.071.603m-28.63-10.948c-1.09-1.089-.542-2.765 1.476-4.517 2.274-1.974 2.59-3.51.935-4.49-1.218-.716-2.972-3.715-2.972-5.078 0-1.594 1.524-.893 4.319 1.977 1.52 1.567 3.938 3.082 5.371 3.368 2.965.592 2.984 2.208.03 2.61-1.086.148-3.466 1.711-5.288 3.478s-3.56 2.961-3.87 2.652m25.732-1.695c-3.266-.403-3.617-2.78-.61-4.148 2.527-1.153 2.59-2.245.203-3.503-4.481-2.355-3.048-4.792 2.818-4.792 2.87 0 3.949.297 3.711 1.017-.188.565-1.131 1.138-2.108 1.28-2.218.325-2.294 1.5-.14 2.186.898.282 1.63.798 1.63 1.149 0 .346-.732 1.296-1.63 2.11-2.188 1.973-2.055 2.69.547 2.998 1.2.14 2.331.716 2.516 1.273.34 1.033-1.279 1.13-6.937.43M212.504 283.67c-.592-.596-1-3.233-1-6.48 0-4.747.288-5.82 2.181-8.062 1.879-2.234 2.565-2.528 4.964-2.14 3.282.532 4.983 1.786 5.982 4.408l.728 1.91 2.728-2.08c3.368-2.561 4.813-2.652 4.47-.275-.151 1.051-1.732 2.792-3.773 4.16-2.591 1.732-3.447 2.806-3.262 4.098.203 1.432.89 1.793 3.768 2 2.784.2 3.459.54 3.251 1.628-.226 1.183-1.599 1.409-9.648 1.605-6.605.162-9.683-.068-10.389-.773m9.92-3.594c1.015-2.641.438-6.017-1.395-8.141-1.633-1.899-2.123-2.065-3.666-1.243-.98.527-1.833 1.77-1.898 2.76-.452 7.064-.045 7.912 3.795 7.912 1.682 0 2.852-.478 3.165-1.288m157.764-16.056c-3.772-2.532-4.055-5.508-.83-8.725 5.138-5.135 13.862-1.578 12.58 5.127q-.66 3.458-6.858 4.935c-1.497.358-2.957-.038-4.892-1.337m8.272-2.622c1.102-.678 1-3.127-.18-4.306-2.162-2.159-7.99-.716-7.99 1.978 0 2.761 5.111 4.219 8.17 2.328m-26.347 3.168c-.596-.595.15-14.134.84-15.268.642-1.055 8.27.045 10.51 1.518 1.063.693 1.935 1.932 1.935 2.75 0 1.62-2.414 4.181-3.938 4.181-1.434 0-1.155 1.195.675 2.848.898.81 1.63 1.967 1.63 2.57 0 1.883-2.245 1.198-4.221-1.293-2.728-3.439-4.199-3.477-4.723-.12-.419 2.701-1.596 3.925-2.708 2.814m9.12-9.192c2.18-1.382.34-3.33-3.15-3.33-2.96 0-3.288.2-3.288 2.034 0 1.76.365 2.034 2.651 2.027 1.456-.008 3.161-.34 3.787-.735m24.93 7.557c-1.479-1.59-1.86-2.69-1.49-4.275.747-3.214 2.195-4.306 6.31-4.77 7.295-.821 10.279 3.994 5.462 8.808-3.191 3.187-7.453 3.285-10.282.237m7.913-1.646c1.947-1.763 1.886-3.27-.173-4.37-1.89-1.013-4.248-.482-5.715 1.28-.807.977-.717 1.523.46 2.826 1.785 1.963 3.456 2.046 5.428.264m-183.444.95c-4.5-3.783-5.005-12.685-.943-16.738 2.633-2.63 5.564-2.875 9.49-.795 2.83 1.5 3.693 2.498 4.387 5.078 1.332 4.946-.731 11.852-4.081 13.641-2.686 1.44-6.31.953-8.853-1.187m6.692-2.158c5.446-2.479 3.862-12.922-1.962-12.922-2.768 0-4.53 1.997-5.235 5.93-.487 2.7-.257 3.372 1.87 5.5 2.773 2.765 2.622 2.724 5.327 1.492m182.112 3.71c-.792-.79 3.674-9.297 4.878-9.297.592 0 1.49.915 1.999 2.034.513 1.12 1.195 2.035 1.52 2.035s1.192-.916 1.927-2.035c2.086-3.175 4.334-2.644 5.39 1.274.49 1.82 1.094 3.835 1.34 4.479.305.795-.114 1.168-1.31 1.168-1.229 0-2.021-.746-2.632-2.494l-.868-2.498-1.524 2.498c-1.844 3.029-2.964 3.157-3.99.46-1-2.626-2.09-2.581-3.422.143-1.094 2.241-2.406 3.126-3.304 2.233zm163.875-2.4c-3.689-1.352-5.175-2.73-6.6-6.113-3.17-7.531 6.698-17.623 14.378-14.708 1.43.543 2.233 1.45 2.233 2.517 0 1.646-1.113 1.722-5.514.365-2.98-.923-8.348 4.562-8.348 8.533 0 3.74 7.378 8.265 11.4 6.992 1.383-.44 1.647-1.22 1.647-4.897 0-4.807.819-5.986 2.792-4.016 1.482 1.484 1.61 3.628.464 7.76-1.287 4.623-5.937 5.956-12.452 3.568m14.402.068c-.264-.694.37-2.26 1.437-3.534 1.056-1.262 2.64-3.64 3.52-5.285 1.712-3.203 3.13-4.144 5.242-3.474 1.603.513 8.446 11.667 7.797 12.714-.792 1.281-2.753.83-3.821-.877-.807-1.289-1.901-1.628-5.258-1.628-2.335 0-4.466.366-4.742.81s-1.222 1.194-2.1 1.665c-1.238.66-1.706.573-2.075-.391M598 254.48c-.479-.896-1.214-1.63-1.63-1.63-.414 0-1.15.734-1.633 1.63-.784 1.466-.618 1.628 1.634 1.628s2.414-.166 1.63-1.628m29.353 7.55c-.672-.256-1.464-.837-1.762-1.292-.679-1.044-.32-9.757.46-11.016.321-.52 2.452-.942 4.738-.942 9.838 0 13.176 9.147 4.59 12.58-3.224 1.288-5.83 1.506-8.026.67m7.382-3.907c4.066-2.102 2.768-5.847-2.158-6.223-3.478-.264-4.092.418-3.738 4.147.358 3.76 1.713 4.238 5.896 2.076m9.947 3.963c-.695-.282-1.019-2.464-1.019-6.86v-6.45l3.87.012c4.99.011 7.544.716 7.544 2.076 0 .712-1.309 1.168-3.81 1.33-4.896.32-5.884 2.286-1.15 2.286 2.414 0 3.33.336 3.33 1.22 0 1.229-.392 1.38-4.001 1.545-1.083.046-2.12.543-2.313 1.104-.252.742 1.056 1.017 4.885 1.017 5.658 0 6.812.464 5.398 2.166-.89 1.07-10.418 1.485-12.734.554m-36.178-.889c-.396-2.479.43-10.593 1.17-11.497 1.093-1.33 8.954-.78 10.806.753 1.75 1.45 1.407 4.48-.667 5.892-1.788 1.217-1.796 1.28-.287 2.419 1.652 1.243 1.18 3.047-.792 3.047-.649 0-1.81-.734-2.576-1.631s-2.052-1.627-2.848-1.627c-.906 0-1.449.61-1.449 1.627q0 1.627-1.633 1.631c-.894 0-1.675-.275-1.728-.614zm8.913-7.327c-.177-.942-1.169-1.514-2.912-1.68-2.21-.215-2.644.019-2.644 1.424 0 1.382.513 1.68 2.912 1.68 2.339 0 2.863-.283 2.644-1.424m44.088 6.574c-.347-2.366.366-10.575.97-11.204.686-.716 6.257 2.724 10.051 6.205 2.23 2.045 2.965 1.111 2.396-3.037-.445-3.262-.328-3.631 1.15-3.631 1.803 0 2.622 1.974 2.64 6.366.012 3.297-1.255 5.85-2.904 5.85-1.286 0-4.979-2.395-8.46-5.496-2.886-2.565-3.361-2.32-3.112 1.598.173 2.72-.076 3.492-1.207 3.73-.785.157-1.472-.012-1.524-.381m-264.43-17.254c-.215-.343-.177-2.712.087-5.255.325-3.127.838-4.63 1.584-4.63 1.641 0 1.558 9.43-.083 10.058-.66.253-1.373.177-1.588-.17zm26.57-.72c-1.976-1.684-2.474-4.81-1.15-7.218 1.905-3.458 9.253-4.761 9.826-1.74.219 1.13-.302 1.424-2.486 1.424-3.723 0-5.88 1.643-5.152 3.93.815 2.56 6.978 2.293 6.978-.302 0-1.41 1.588-2.389 2.403-1.48.347.387.317 1.845-.068 3.247-.543 1.974-1.271 2.66-3.252 3.051-3.968.795-5.295.625-7.099-.912m-70.913-.06c-.755-.493-.981-2.614-.811-7.542l.237-6.852 3.603-.256c4.594-.328 7.034.297 9.056 2.313 1.815 1.812 2.116 6.182.566 8.186-2.482 3.206-10.215 5.745-12.648 4.155m8.94-3.933c3.229-2.916.54-8.424-4.111-8.424-2.226 0-2.362.208-2.761 4.276-.23 2.351-.257 4.551-.057 4.886.679 1.13 5.428.626 6.933-.738m23.632 1.76c-2.388-1.572-4.678-2.856-5.085-2.856s-.743 1.1-.743 2.445q0 2.44-1.226 2.445c-1.649 0-1.765-8.578-.125-9.208 1.038-.395 8.785 4.016 9.366 5.335.664 1.492 1.77.403 1.77-1.744 0-1.375.524-2.558 1.263-2.84 1.064-.408 1.222.236 1.018 4.124-.135 2.536-.618 4.732-1.07 4.883-.457.15-2.785-1.014-5.168-2.585m-160.349-2.739c-8.336-5.997-8.588-7.172-2.429-11.29 6.944-4.641 9.638-5.978 10.43-5.187.818.817-.717 4.144-1.913 4.144-.433 0-.784 2.686-.784 5.982 0 4.879.29 6.246 1.573 7.41 1.407 1.27 1.524 3.775.173 3.673-.29-.019-3.459-2.151-7.05-4.732m1.498-7.304c-.547-2.09-1.056-2.181-3.176-.558-1.547 1.183-1.54 1.244.452 2.8 2.316 1.808 3.524.817 2.724-2.242m142.827 11.26c-.905-1.462.513-8.145 1.724-8.145.83 0 1.131 1.206 1.131 4.483 0 3.353-.294 4.48-1.173 4.48-.648 0-1.403-.37-1.682-.818m35.344-1.017c-.51-7.369.898-8.552 5.9-4.969 2.206 1.586 4.07 2.573 4.137 2.196.068-.376.208-1.055.313-1.503s.234-1.273.283-1.83c.053-.562.645-1.018 1.32-1.018 1.686 0 1.69 6.743 0 8.141-1.01.84-1.848.505-4.828-1.936-1.98-1.62-3.817-2.95-4.074-2.95-.264 0-.475 1.28-.475 2.852 0 3.24-2.357 4.174-2.576 1.017m-42.07-23.997c-.626-.226-1.018-1.906-1.018-4.37 0-3.707-.15-4.008-1.992-4.008-2.451 0-3.266-1.123-1.738-2.393 1.746-1.446 11.478-.798 11.478.765 0 .682-.898 1.349-2.037 1.507-2.667.377-3.169 1.319-2.674 5.007.414 3.1-.189 4.144-2.018 3.488m11.945-1.277c-3.832-2.57-4.062-5.398-.663-8.254 2.067-1.74 3.285-2.136 5.952-1.94 4.45.324 4.726 2.573.34 2.724-2.894.101-5.546 1.469-5.546 2.855 0 2.502 7.243 4.532 8.563 2.404.852-1.387 2.037-.904 2.037.832 0 1.021-.796 1.952-2.094 2.445-3.262 1.24-5.586.95-8.589-1.066m-155.968-.215c-.872-2.271-.528-10.457.531-12.586 1.332-2.675 6.036-4.912 9.05-4.313 3.394.678 5.563 5.922 5.243 12.661l-.246 5.09-7.034.233c-5.873.196-7.122.019-7.544-1.085m10.746-7.007c-.287-5.861-1.678-7.429-5.017-5.643-2.387 1.277-2.799 2.543-2.335 7.192l.347 3.462h7.247zm104.447 7.723c-.313-2.336.106-15.118.517-15.78.97-1.564 2.018.169 2.018 3.34 0 1.768.366 3.21.815 3.21s.818-.275.83-.61c.003-.339 1.26-2.076 2.787-3.869 2.218-2.6 2.987-3.055 3.81-2.253.83.81.656 1.41-.88 3.04l-1.908 2.031 2.516 5.07c1.384 2.788 2.339 5.361 2.116 5.72-1.014 1.638-2.697.3-4.3-3.429-.966-2.238-2.233-4.068-2.818-4.068-1.237 0-2.798 2.799-3.138 5.635-.226 1.846-2.169 3.459-2.369 1.963m16.235-.433c-.743-2.159.32-8.684 1.494-9.132 1.584-.606 2.074.983 1.773 5.726-.185 2.878-.615 4.031-1.577 4.212-.728.136-1.49-.226-1.69-.806m37.343.297c-.63-1.024 1.184-9.907 2.03-9.907.361 0 .988.58 1.384 1.288.41.735 1.927 1.349 3.508 1.428 2.33.113 2.825-.17 3.047-1.748.559-3.94 2.188-1.13 2.422 4.185.192 4.363 0 5.433-.966 5.433-.709 0-1.312-.92-1.463-2.238-.23-1.997-.63-2.268-3.667-2.487-3.172-.233-3.425-.097-3.67 1.97-.264 2.269-1.773 3.455-2.625 2.073m17.45-4.596c0-4.898.143-5.32 1.953-5.772 2.69-.678 5.598-.158 5.998 1.07.226.686-.611 1.017-2.584 1.017-2.09 0-2.923.358-2.923 1.259 0 .998.595 1.149 2.855.723 2.3-.43 2.855-.279 2.855.78 0 1.352-.716 1.597-3.874 1.34-1.188-.093-1.836.302-1.836 1.131 0 .953.84 1.28 3.262 1.28 2.358 0 3.263.34 3.263 1.225 0 .938-1.041 1.22-4.489 1.22h-4.48zm12.228 3.307c0-1.156-.392-2.106-.871-2.106-.483 0-.298-.576.407-1.28.706-.701 1.283-1.997 1.283-2.875 0-2.916 2.395-2.739 5.627.415l3.067 2.99-.34-2.316c-.214-1.458.136-2.712.944-3.383 1.754-1.458 2.282.087 1.961 5.734-.222 3.835-.483 4.415-2.086 4.64-1.01.144-1.837-.037-1.837-.406 0-1.055-3.764-5.146-4.73-5.146-.479 0-.988 1.164-1.132 2.584-.313 3.184-2.293 4.174-2.293 1.15m196.401-19.014c-27.12-.162-35.774-.452-36.385-1.22-.501-.63-.97-19.68-1.23-50.168-.407-47.452-.369-49.215 1.12-50.703 1.415-1.412 2.943-1.54 18.465-1.533 9.305.004 26.642-.158 38.527-.365 46.407-.807 48.49-.773 50.089.825 1.135 1.133 1.282 6.984 1.282 52.092v50.816l-18.143.234c-9.98.128-34.156.139-53.725.018zm65.546-4.185 2.245-.087v-96.24l-47.905.43c-26.347.233-49.3.447-51.005.47l-3.093.049.415 30.337c.234 16.689.494 38.271.58 47.964l.16 17.623 48.18-.233c26.501-.129 49.19-.272 50.423-.317m-31.817-10.748c-2.082-.783-3.22-2.923-2.13-3.997.407-.399 2.157-.32 4.032.181 3.304.89 7.694.388 7.694-.878 0-.365-2.1-.998-4.67-1.409-3.737-.595-4.865-1.137-5.657-2.727-1.97-3.982 1.67-6.216 9.143-5.606 2.595.211 3.225.58 3.225 1.892 0 1.258-.46 1.57-2.037 1.382-3.425-.414-5.79-.354-6.307.162-.886.885.355 1.386 4.225 1.7 4.628.376 6.322 1.627 5.998 4.422-.4 3.413-9.083 6.551-13.516 4.878m-60.08-3.383c.324-1.906.815-6.212 1.094-9.568.441-5.402.69-6.11 2.13-6.11 1.408 0 1.6.47 1.412 3.461l-.22 3.462h8.092l.249-3.465c.177-2.415.618-3.459 1.47-3.459 1.23 0 1.578 1.756 2.71 13.69.354 3.745.192 4.822-.778 5.199-1.897.727-3.078-1.074-2.904-4.43.226-4.363-.423-4.913-5.138-4.348-4.024.479-4.074.52-3.866 3.165.272 3.44-1.037 5.865-3.169 5.865-1.516 0-1.618-.324-1.082-3.465zm24.284 2.272c-4.658-2.023-5.798-7.207-2.342-10.661 1.584-1.582 2.836-1.997 6.05-1.997 9.637 0 12.515 9.712 3.851 13-2.89 1.097-4.402 1.03-7.559-.338m7.936-3.749c.925-.923 1.562-2.298 1.419-3.047-.419-2.17-4.481-3.726-7.476-2.867-2.113.603-2.554 1.141-2.554 3.12 0 4.087 5.526 5.876 8.611 2.794m47.188 4.092c-.49-.302-.735-3.176-.592-6.962l.238-6.442h5.303c4.164 0 5.3.256 5.3 1.217 0 .904-.955 1.224-3.67 1.224-2.697 0-3.67.316-3.67 1.206 0 .734.788 1.213 2.025 1.22 1.237.008 2.127.546 2.29 1.386.2 1.025-.415 1.436-2.433 1.628-1.735.17-2.697.693-2.697 1.48 0 .905 1.267 1.33 4.892 1.632s4.892.723 4.892 1.627c0 .96-1.173 1.232-5.522 1.258-3.036.02-5.896-.192-6.356-.474m-38.629-1.779c-.8-1.137-1.271-3.578-1.271-6.573 0-4.472.113-4.747 1.837-4.502 1.58.226 1.795.678 1.573 3.262-.472 5.399 2.263 7.75 6.427 5.523 1.238-.66 1.58-1.722 1.58-4.886 0-3.504.22-4.046 1.63-4.046 1.377 0 1.63.539 1.622 3.462-.011 1.902-.219 4.22-.467 5.154-1.132 4.204-10.487 6.091-12.93 2.606m-20.762-27.221c-1.234-.867-2.656-1.1-4.413-.739-1.43.29-4.248.603-6.266.694l-3.67.162-.249-3.87c-.279-4.366-1.339-5.093-2.074-1.423-.717 3.582-2.724 3.066-3.961-1.018l-1.041-3.465-.257 4.32c-.17 2.898-.652 4.472-1.467 4.785-.667.256-1.41.267-1.652.03-.241-.241 0-3.97.547-8.288.909-7.214 1.124-7.828 2.678-7.602 1.305.188 1.886 1.175 2.561 4.317.95 4.453 1.709 4.13 2.543-1.092.4-2.48.924-3.387 1.972-3.387 1.69 0 2.245 1.722 2.961 9.192.295 3.036.789 5.677 1.102 5.873.31.188 1.814-1.318 3.346-3.36 4.402-5.885 5.103-5.934 8.015-.562 1.38 2.543 2.509 4.902 2.509 5.244 0 1.319-1.445 1.41-3.184.192zm-3.599-5.327c-.26-.652-.452-.46-.49.49-.038.859.155 1.34.426 1.07.272-.272.302-.972.068-1.56zm24.073 1.168.238-5.497h4.873c4.625 0 4.915.117 5.692 2.325.706 2 .555 2.539-1.09 3.869-1.048.851-2.927 1.544-4.168 1.544-1.576 0-2.391.494-2.69 1.628-.233.896-1.025 1.63-1.76 1.63-1.132 0-1.302-.85-1.095-5.5m7.763-1.56c.453-1.382-2.908-2.207-4.3-1.055-.652.543-1.184 1.326-1.184 1.748 0 1.093 5.11.452 5.484-.693m5.47 5.99c-.246-.64-.336-3.134-.197-5.545.185-3.24.566-4.382 1.472-4.382.886 0 1.293 1.093 1.474 3.918.25 3.865.283 3.907 2.856 3.662 2.142-.207 2.603.038 2.603 1.379 0 1.367-.627 1.669-3.886 1.88-2.78.177-4.006-.076-4.322-.916zm12.892.132c-1.086-1.093-1.425-9.305-.403-9.927.335-.207 2.067-.5 3.851-.659 2.576-.226 3.3.008 3.527 1.138.18.908-.219 1.424-1.102 1.424-1.165 0-1.214.203-.313 1.284.883 1.066.868 1.413-.105 2.023-.642.407-1.63.746-2.188.754-.566.008-1.019.376-1.019.829 0 .448 1.445.813 3.21.813 2.867 0 4.923 1.104 3.923 2.106-.988.987-8.438 1.157-9.38.215m14.613.075c-3.07-1.228-1.682-2.837 2.18-2.524 2.667.215 3.395-.004 3.395-1.017 0-.927-.788-1.296-2.757-1.296-3.599 0-5.168-1.748-3.263-3.647 2.739-2.738 8.464-3.865 8.464-1.668 0 .659-1.195 1.544-2.651 1.958-2.128.618-2.279.784-.762.84 5.54.215 6.918 4.581 2.161 6.846-3.229 1.537-4.043 1.6-6.767.508m-56.214-3.82c.049-5.632.856-6.717 4.99-6.717 1.916 0 4.195.52 5.066 1.157 1.365.998 1.456 1.488.66 3.594-.807 2.14-.732 2.486.611 2.84.845.222 1.535.814 1.535 1.319 0 1.646-2.58 1.951-4.903.58-2.84-1.677-4.881-1.726-4.881-.124 0 .674-.702 1.22-1.558 1.22-1.32 0-1.55-.591-1.52-3.865m6.748-1.83c.275-.45.298-1.146.045-1.553-.671-1.089-3.715-.075-3.715 1.243 0 1.289 2.912 1.533 3.67.31m44.981-5.84c-.584-2.238-.049-3.12 1.901-3.12 2.075 0 2.709 1.251 1.641 3.24-1.158 2.163-2.96 2.099-3.546-.124zm-49.19-18.798c-.355-.558-.555-3.402-.453-6.31l.188-5.297-2.557 4.886c-3.972 7.583-5.092 7.757-7.733 1.194-2.474-6.152-3.911-6.348-3.42-.47.27 3.288.056 4.859-.744 5.526-2.339 1.94-2.893-.46-2.278-9.844.777-11.9 2.123-11.946 7.834-.275.928 1.906 1.939 3.466 2.24 3.466.303 0 1.8-2.392 3.331-5.316 5.168-9.855 6.632-9.173 6.941 3.221.189 7.648.038 8.767-1.245 9.456-1.022.546-1.66.475-2.108-.237zm21.817.275c-2.622-.69-4.051-2.946-2.709-4.284.777-.776 1.219-.783 1.977-.018 1.233 1.228 6.077 1.28 6.827.067.747-1.209-1.154-2.324-3.987-2.34-3.383-.018-5.447-1.416-5.447-3.691 0-3.051 3.248-4.754 8.186-4.28 4.605.441 5.27.83 4.564 2.66-.4 1.04-1.268 1.183-4.583.742-2.814-.373-4.093-.256-4.093.377 0 .509 1.207.923 2.675.923 3.677 0 6.299 1.997 6.299 4.803 0 3.824-4.82 6.329-9.71 5.04m-11.95-.965c-.898-1.45-.585-12.236.381-13.204 2.131-2.128 3.108 2.939 2.565 13.283-.057 1.097-2.256 1.04-2.942-.075zm26.344.012c-1.4-.814-2.015-3.21-.815-3.172.34.01 2.188.384 4.111.828 2.479.57 4.003.531 5.244-.128 1.686-.904 1.697-.968.218-2.05-.84-.61-2.467-1.118-3.613-1.122-5.666-.03-8.291-3.258-5.319-6.54 1.867-2.06 9.4-2.275 11.03-.312 1.557 1.876-.182 2.667-4.734 2.155-2.67-.302-3.554-.159-3.139.516.317.512 1.77.934 3.222.934 3.357 0 6.918 1.627 7.498 3.428.642 1.97-1.003 4.656-3.41 5.568-2.659 1.01-8.479.953-10.293-.105m-286.409 73.55c-6.518-.301-7.423-.64-6.05-2.294.897-1.081 3.006-1.243 13.64-1.032 9.505.184 12.677.505 12.99 1.318.226.596.23 1.266.004 1.492-.494.494-13.768.829-20.58.516zm-24.767-33.878c-5.59-2.023-7.288-6.804-4.078-11.483 2.064-3.013 4.942-4.505 8.676-4.505 3.583 0 5.903 1.292 5.903 3.289 0 1.661-1.976 2.207-2.855.783-1.35-2.185-8.834.268-9.77 3.202-.626 1.978.928 4.559 3.444 5.7 2.595 1.183 4.255 1.093 7.076-.377 3.573-1.86 4.874-.086 1.852 2.528-2.534 2.196-5.797 2.468-10.248.86zm84.116.215c-3.444-.995-7.077-5.689-6.364-8.22 1.596-5.674 3.837-7.422 10.675-8.348 3.214-.437 4.364-.283 5.168.681 1.418 1.71.362 3.06-2.24 2.863-5.357-.41-7.44.095-8.763 2.11-1.98 3.014-.936 5.84 2.735 7.395 4.077 1.733 6.959.769 7.532-2.52.657-3.801 2.8-3.116 3.097.99.226 3.09.011 3.542-2.203 4.687-2.704 1.394-5.658 1.507-9.633.362zm-114.571-.93c-1.58-1.225-7.356-17.123-7.476-20.566-.057-1.665.301-2.441 1.139-2.441.83 0 2.252 3.04 4.458 9.569 1.78 5.262 3.467 9.568 3.75 9.568s2.104-4.253 4.055-9.452 4.047-9.644 4.662-9.881c2.127-.814 2.663.998 1.146 3.891-.814 1.549-2.334 5.2-3.38 8.111-1.044 2.912-2.21 5.644-2.587 6.07-.377.425-.69 1.604-.69 2.617 0 1.018-.71 2.223-1.577 2.69-1.965 1.051-1.916 1.055-3.5-.177m16.453.407-.452-6.781c-.34-4.995-.17-6.382.87-7.244 1.823-1.51 2.11-.916 2.547 5.296.211 3.03.558 5.783.773 6.126.736 1.19-.622 3.213-2.154 3.213-.848 0-1.561-.275-1.584-.61m27.762-.486c0-.603.781-1.793 1.732-2.645.95-.855 3.168-3.661 4.922-6.234 1.852-2.72 3.795-4.683 4.628-4.683 1.818 0 10.407 12.869 9.317 13.961-1.01 1.006-3.474 0-3.474-1.424 0-1.314-.38-1.378-6.895-1.175-3.76.12-5.104.509-5.96 1.725-1.252 1.79-4.27 2.129-4.27.475m13.844-6.027c-.012-.34-.653-1.402-1.426-2.363l-1.407-1.747-1.898 2.358-1.897 2.362h3.323c1.83 0 3.316-.275 3.305-.614m11.157 6.574c-.298-.294-.54-3.82-.54-7.836v-7.301l6.089.388c3.346.215 6.65.859 7.336 1.431.725.6 1.253 2.34 1.253 4.13 0 2.806-.238 3.145-2.565 3.653l-2.565.566 2.576 2.011c1.414 1.104 2.361 2.347 2.109 2.758-.943 1.522-4.037.678-6.598-1.8-2.648-2.566-5.85-2.796-4.91-.351.486 1.266-1.321 3.213-2.189 2.35zm10.268-8.145c.826-.49.773-2.51-.08-3.037-.377-.233-2.195-.666-4.036-.96-3.108-.497-3.387-.384-3.874 1.552-.803 3.202.148 4 3.995 3.368 1.86-.31 3.659-.724 3.99-.92zm6.212 8.491c-.057-.113-.166-1.22-.241-2.467-.098-1.583.188-2.136.946-1.846.672.256 2.328-1.507 4.353-4.634 3.056-4.724 4.481-6.28 5.783-6.31.573-.011 5.556 7.557 6.56 9.964.324.784.969 1.424 1.433 1.424s.84.735.84 1.631c0 2.136-2.692 2.159-4.182.03-.977-1.397-1.754-1.537-6.194-1.11-3.976.38-5.183.813-5.56 2.003-.377 1.198-3.27 2.215-3.738 1.315m12.323-7.33c-.038-3.399-3.157-3.82-4.854-.656-.83 1.544-.672 1.676 1.984 1.676 1.773 0 2.878-.396 2.87-1.017m34.435 6.065c-.694-1.48-.641-12.993.056-13.694.627-.625 7.292-1.077 8.94-.606.785.226 1.43.93 1.43 1.57 0 .86-1.083 1.169-4.078 1.169-3.01 0-4.077.308-4.077 1.175 0 .799 1.105 1.254 3.466 1.424 4.674.339 4.817 2.524.204 3.1-2.656.336-3.312.765-3.535 2.32-.256 1.832-.083 1.903 4.078 1.632 3.817-.252 4.35-.098 4.35 1.25 0 1.32-.736 1.572-5.093 1.786-4.146.2-5.217-.008-5.741-1.13m382.444-69.177c-.377-.79-.611-4.656-.513-8.593.185-7.606 1.23-10.33 3.3-8.612.853.705 1.083 2.724.913 7.95l-.226 7.006h4.21c2.32.004 4.488.279 4.828.614.332.336.852.61 1.154.61.902 0 10.743-13.045 10.954-14.518.113-.772 1.049-1.45 2.161-1.564 1.634-.165 2.309.505 3.98 3.952 1.105 2.283 3.214 5.979 4.688 8.213 1.471 2.234 2.678 4.392 2.678 4.803 0 1.47-4.024.738-4.896-.885-.743-1.394-1.705-1.632-6.555-1.632-4.964 0-5.9.245-7.367 1.933-1.55 1.782-2.327 1.94-10.154 2.046-7.352.098-8.563-.076-9.159-1.319m29.973-6.359c0-.249-.6-1.605-1.332-3.014l-1.328-2.565-1.93 2.241c-2.679 3.108-2.441 3.786 1.327 3.786 1.795 0 3.263-.203 3.263-.452zm45.584 6.91c-.803-.502-.905-1.048-.332-1.828 2.705-3.68 8.563-12.903 8.563-13.475 0-1.349 3.229-3.564 4.489-3.082.712.275 1.848 1.876 2.52 3.564.678 1.684 2.33 5.217 3.68 7.85 1.347 2.634 2.249 5.312 2 5.96-.671 1.748-3.998.946-4.941-1.19-.717-1.646-1.317-1.827-5.5-1.658-3.523.136-4.798.517-5.119 1.515-.565 1.793-3.9 3.251-5.356 2.343m13.112-8.295c-.008-.558-.381-1.567-.83-2.238-.713-1.059-.98-1.01-2.03.358-1.7 2.23-1.508 2.9.83 2.9 1.124 0 2.037-.459 2.03-1.02m-109.615 7.61c-.253-.411-.298-4.152-.102-8.322.408-8.703.415-8.706 8.072-8.8 4.236-.05 5.017.207 7.216 2.407 2 1.996 2.361 2.885 1.909 4.679-.306 1.216-.985 2.73-1.509 3.364-1.43 1.718-5.832 3.337-9.083 3.337-2.527 0-2.878.25-2.878 2.035 0 1.476-.438 2.038-1.584 2.038-.868 0-1.788-.332-2.041-.739m11.595-7.858c3.35-2.343 1.286-6.073-3.342-6.05-3.587.019-4.771.98-4.42 3.586.497 3.703 4.273 4.905 7.762 2.464m51.3 8.073c-.31-.309-.563-4.125-.563-8.484 0-10.66.951-11.083 7.997-3.54l5.145 5.507-.188-4.645c-.197-4.863.735-6.785 2.893-5.96 1.04.4 1.278 1.986 1.278 8.567 0 7.293-.15 8.114-1.576 8.487-1.185.31-2.746-.972-6.318-5.183-2.61-3.078-5.002-5.602-5.319-5.613-.317-.004-.683 2.43-.815 5.42-.226 4.98-1.105 6.872-2.534 5.444"/>
</svg>
