<?xml version="1.0" encoding="utf-8"?>
<svg xmlns="http://www.w3.org/2000/svg" viewBox="0 0 1000 636">
	<title>A map showing the arrangement of the Vicar’s study: a door enters on the lower left of the oblong room. On the shorter left-hand wall is a fireplace, surrounded by a sofa, two armchairs, and a side table with a lamp; beside the side table is a window on the wall opposite the door. Beside the window to the right is a tall stand with a pot on it, to the right of that a side chair, and the writing-table is in the upper right corner, sitting diagonally. Beside it on the shorter right-hand wall is a bookshelf, and a tallboy chest of drawers is in the lower right corner. Between the tallboy and the door are two side chairs.</title>
	<path d="M225.23 0c-.974-.02-1.862 1.452-2.535 4.256-1.254 5.225-2.272 5.953-2.987 2.146-.958-5.107-2.472-5.334-5.292-.804l-2.485 3.995-.584-3.903c-.55-3.657-2.356-6.48-3.45-5.388-.391.393 1.037 6.026 3.52 13.864.562 1.77 2.105.234 3.957-3.938l1.716-3.877 1.332 4.194c.733 2.308 1.683 4.195 2.11 4.195.929 0 6.36-13.56 5.698-14.223q-.51-.509-1-.517m31.68 3.96c-1.8-.03-3.145.332-3.197 1.018-.023.292-.211 2.49-.42 4.886l-.38 4.358 3.146.287c3.645.335 8.047-1.675 8.47-3.867.653-3.395-.612-5.325-4.07-6.202a15.8 15.8 0 0 0-3.55-.482zm15.985.29c-1.88.03-3.695.61-4.8 1.798-2.318 2.486-2.207 4.534.373 7.114 1.726 1.725 2.627 2.02 4.827 1.577 4.854-.976 5.374-1.263 6.404-3.524.866-1.9.782-2.553-.584-4.389-1.278-1.717-3.805-2.608-6.22-2.576m26.81 0c-1.175 0-3.304 2.875-4.036 5.455-.423 1.487-.64 1.367-1.911-1.05-1.743-3.315-4.338-3.63-5.093-.625-.705 2.81-1.82 2.647-2.89-.42-.483-1.385-1.46-2.52-2.177-2.52-1.7 0-1.674.167.81 5.065 2.348 4.635 3.43 5.144 4.57 2.152 1.225-3.224 2.539-3.434 3.617-.58.538 1.427 1.425 2.592 1.972 2.592.84 0 6.194-8.327 6.194-9.633 0-.239-.473-.436-1.055-.436m-69.53.09c-1.01.06-1.36 1.976-.994 5.607.276 2.74.81 4.32 1.389 4.128 1.205-.399 1.567-8.76.41-9.475q-.455-.28-.805-.262zm17.097.562c-.388.008-.753.797-.917 2.494-.144 1.5-.533 2.725-.86 2.725-.328 0-2.004-1.158-3.725-2.576-4.31-3.552-6.046-3.055-6.128 1.751-.034 2.07.093 4.065.287 4.436.706 1.353 2.303-.02 2.562-2.208.146-1.233.462-2.243.702-2.243s2.109 1.205 4.155 2.674c4.473 3.211 5.582 2.576 5.21-2.986-.174-2.61-.753-4.075-1.286-4.067m26.3 1.024c.538 0 1.87.754 2.96 1.675l1.983 1.675-2.357 2.1c-1.295 1.155-2.623 2.105-2.956 2.105-1.275 0-4.34-2.67-4.34-3.78 0-1.265 3.13-3.775 4.71-3.775m-15.832.128c.665-.019 1.459.173 2.362.584 2.747 1.251 2.688 4.12-.108 5.183-3.738 1.42-4.56.932-4.56-2.704 0-1.959.84-3.02 2.305-3.063zm-55.088 5.327-29.644.25c-16.304.14-59.106.516-95.118.84l-65.472.59-.738 287.67c-.56 219.461-.5 287.904.25 288.656.55.552 4.568 1.17 9.13 1.404l.006.011c4.48.234 62.163.318 128.184.194 100.946-.19 120.605-.413 123.599-1.413 3.442-1.15 14.22-8.006 23.706-15.073 2.532-1.886 4.988-3.616 5.457-3.846s4.776-3.064 9.57-6.295c18.15-12.23 23.688-15.902 32.565-21.587 5.61-3.594 6.69-5.03 4.893-6.52-1.527-1.267-1.713-1.166-21.78 12.507-33.576 22.877-48.47 32.804-49.226 32.804-.425 0-.77.29-.77.645s-1.608 1.501-3.57 2.545l-3.566 1.9-126.754-.24-126.755-.237-.17-7.554c-.187-8.388-.26-121.377-.091-145.274l.107-15.21 2.593-1.51c10.255-5.982 26.943-22.477 35.49-35.08 6.815-10.05 7.858-11.816 11.687-19.836 4.753-9.955 5.178-10.99 7.065-17.203.98-3.23 2.098-6.632 2.485-7.554.73-1.742 1.836-7.487 3.402-17.685 1.42-9.245 1.223-29.728-.38-39.355-2.97-17.85-10.08-36.848-20.216-54.032-7.885-13.366-25.634-32.112-38.4-40.553l-3.992-2.638V17.813l2.31-.426c1.27-.233 42.61-.426 91.87-.43l89.563-.004.256 3.09.256 3.092h108.29l.262-2.725.26-2.73h45.487c25.017 0 105.325.252 178.46.56 105.71.443 132.3.766 129.69 1.571-8.918 2.75-14.127 6.264-9.288 6.264h1.973l-.08 22.304-.08 22.31 2.353 2.023c2.113 1.818 3.174 2.031 10.493 2.12 16.592.198 18.303.172 22.594-.292 2.41-.26 5.666-.185 7.235.17 3.31.746 7.57-.71 8.402-2.879.3-.78.548-11.423.548-23.646 0-21.843.03-22.219 1.676-21.695 1.916.607 2.378-1.36.63-2.684-1.847-1.4-10.041-4.454-13.382-4.989-5.22-.834-4.436-1.774 1.235-1.48 2.874.15 46.586.304 97.14.333l91.92.06-2.52 2.14a1307 1307 0 0 1-5.036 4.256c-11.13 9.345-22.98 20.245-23.338 21.465-.59 2.013 1.008 3.904 24.06 28.517 9.705 10.362 11.492 11.377 14.387 8.18.836-.924 1.882-1.676 2.326-1.676s2.938 2.351 5.538 5.224 7.778 8.44 11.508 12.374 9.014 9.55 11.743 12.476l4.964 5.322-2.772 2.48c-1.526 1.361-2.656 2.98-2.51 3.6.294 1.254 12.397 14.375 26.616 28.85 6.096 6.204 9.684 9.266 10.37 8.854 1.12-.675 10.046-8.257 14.9-12.66 10.72-9.728 13.317-12.05 15.81-14.12l2.798-2.32-.492 40.08c-.273 22.046-.661 40.344-.86 40.666-.2.323-10.3.671-22.446.773l-22.088.185-1.68-2.535c-1.733-2.62-3.265-3.212-4.237-1.64-.903 1.461-.494 199.87.414 200.777.504.504 1.903-.176 3.797-1.838l3.002-2.633 21.01.205 21.013.2-.15 48.666c-.078 26.768-.088 51.41-.018 54.755.104 4.86-.118 6.085-1.107 6.085-.68 0-1.455-.357-1.721-.79-.268-.43-1.517-1.314-2.777-1.96-3.452-1.772-10.576-5.786-11.528-6.495-1.048-.78-16.05-9.439-22.246-12.84-2.54-1.394-7.635-4.214-11.328-6.269-21.07-11.724-25.19-13.746-26.417-12.973-1.15.726-9.54 14.151-17.691 28.318a939 939 0 0 1-4.38 7.554c-3.423 5.714-5.71 9.594-7.174 12.17-.92 1.614-4.321 7.275-7.562 12.583l-5.892 9.65 2.47 2.18c1.36 1.198 3.502 2.693 4.76 3.324a54 54 0 0 1 4.385 2.52c1.154.755 5.119 3 8.812 4.983 3.694 1.984 7.659 4.25 8.813 5.04 3.7 2.532 31.28 17.894 37.985 21.157 1.732.843 3.146 1.806 3.146 2.141s-89.24.68-198.314.758c-164.493.123-197.6-.04-194.118-.947 2.308-.603 5.33-1.703 6.717-2.448s3.154-1.36 3.934-1.363 1.657-.383 1.942-.845c.286-.462 1.205-.84 2.044-.84 2.155 0 3.846-2.143 2.403-3.047-.6-.375-1.69-.585-2.423-.466-1.2.197-1.297-2.142-.974-23.17l.36-23.385-3.013-3.19c-2.928-3.104-3.12-3.174-7-2.52-2.193.37-12.088.64-21.99.6-20.886-.09-22.054.204-23.644 5.89-.637 2.278-1.031 11.28-1.08 25.008l-.09 21.45-1.885-.36c-1.32-.252-1.89.05-1.89.978 0 .736.85 1.87 1.89 2.525 2.03 1.28 13.76 5.428 16.297 5.762.846.112-31.515.395-71.913.63l-73.45.43-.266 1.885c-.224 1.574.127 1.892 2.1 1.895 182.469.261 616.937-.198 617.389-.65.35-.35 1.2-98.616 1.89-218.374.692-119.758 1.479-235.679 1.748-257.6.542-44.265.543-98.33 0-98.868-.192-.19-80.728-.46-178.973-.595s-179.766-.3-181.151-.379c-1.385-.069-76.177-.117-166.205-.099-142.426.03-163.81-.123-164.612-1.188-1.346-1.784-2.014-.617-2.014 3.51v3.63h-52.044c-41.014 0-52.07-.218-52.162-1.045-.065-.577-.042-2.374.05-3.99zm694.943 6.755c0-.885 95.846.196 96.74 1.091.387.385.783 14.633.883 31.667s-.01 40.16-.241 51.39l-.426 20.414-3.566-3.964c-1.96-2.18-9.326-9.863-16.37-17.065-13.521-13.827-14.26-14.613-33.312-35.743-6.658-7.385-13.883-15.316-16.057-17.624A2926 2926 0 0 1 914.692 37a2404 2404 0 0 0-11.85-12.656c-2.886-3.05-5.247-5.843-5.247-6.207m-5.252.512c.03 0 .05.008.07.02.354.15 4.55 4.612 9.33 9.92 10.823 12.018 17.908 19.711 25.11 27.272 3.076 3.23 8.233 8.852 11.46 12.492s6.625 7.421 7.548 8.404c.923.984 5.077 5.53 9.232 10.105s11.144 11.977 15.53 16.446c4.386 4.468 11.3 11.665 15.365 15.994l7.393 7.877-1.937 1.527c-2.956 2.336-11.207 9.707-16.497 14.73-2.608 2.475-6.443 5.87-8.52 7.55-2.078 1.676-3.905 3.335-4.058 3.681-.865 1.945-2.791.132-26.12-24.548-4.144-4.384-7.548-8.37-7.567-8.86s1.105-1.727 2.49-2.75c1.385-1.024 2.515-2.44 2.515-3.145s-4.06-5.478-9.022-10.607-11.478-11.95-14.48-15.16c-14.361-15.362-12.773-14.33-16.83-10.92-2.588 2.178-2.725 2.203-3.837.682-1.46-1.996-6.926-7.967-16.17-17.665-10.76-11.289-13.531-14.415-13.531-15.267 0-.423 2.154-2.63 4.785-4.9 2.63-2.272 5.39-4.696 6.128-5.389s3.969-3.496 7.178-6.233 6.214-5.38 6.676-5.875c1.716-1.833 6.878-5.392 7.757-5.377zM681.24 19.802c5.052.02 10.097.692 14.684 2.002l6.927 1.977.018 7.227c.012 3.974.04 14.098.07 22.5.03 8.4-.205 16.066-.513 17.033-.487 1.535-1 1.694-4.052 1.245-1.924-.283-4.216-.615-5.088-.737-.871-.123-3.438.07-5.702.43-2.264.357-4.757.807-5.544.998-.787.192-3.89.012-6.89-.394-3.002-.407-7.017-.527-8.926-.267-5.605.766-6.18-.377-6.22-12.455-.05-13.318-.695-30.707-1.23-33.035-.523-2.283-.26-2.44 7.747-4.65 4.608-1.272 9.668-1.896 14.72-1.875zm201.29 8.783c-1.137.194-7.73 12.59-7.428 13.998.194.907.945.79 3.57-.553 4.643-2.374 4.966-2.163 2.562 1.644-1.16 1.836-2.105 3.534-2.105 3.774 0 .954 2.22.315 7.695-2.207 3.153-1.453 5.733-2.96 5.733-3.355 0-1.019-1.05-.893-4.488.543-4.32 1.805-5.106 1.565-3.125-.952 1.732-2.2 2.306-4.52 1.107-4.47-.346.018-2.137.741-3.981 1.612-1.816.858-3.438 1.428-3.648 1.286l-.004-.004-.004-.004h-.004v-.004c-.11-.256.91-2.408 2.31-4.856 2.68-4.68 3.182-6.448 1.84-6.448q-.014-.002-.03 0zm-508.98 9.296c-10.622.133-18.68 5.181-23.333 14.627-2.552 5.184-2.667 5.83-2.182 12.118.315 4.087 1.198 8.105 2.3 10.448 3.032 6.447 10.873 12.29 18.706 13.936 11.917 2.505 25.234-5.063 29.409-16.712 2.162-6.033 1.58-15.764-1.25-20.957-4.464-8.189-13.94-13.58-23.65-13.46m1.496 2.878c7.813.282 14.845 4.738 18.767 12.236 2.593 4.958 2.783 5.84 2.428 11.252-.6 9.162-4.8 15.633-12.696 19.575-15.758 7.867-33.728-5.496-32.031-23.82.48-5.202 1.379-6.999 6.117-12.24 3.618-4.005 5.873-5.238 11.912-6.516a22.6 22.6 0 0 1 5.503-.487M79.433 41.79c-11.96-.09-24.732 4.578-32.406 12.543C36.17 65.6 32.227 81.797 36.713 96.677c4.158 13.793 15.755 24.801 30.357 28.81v-.005c5.646 1.553 15.06 1.538 21.826-.03 18.987-4.402 32.594-21.772 32.493-41.485-.046-8.92-1.683-14.45-6.59-22.32-6.081-9.755-12.245-14.432-23.895-18.13-3.588-1.14-7.485-1.698-11.471-1.726zm-.846 2.576c4.63-.04 9.145.57 12.773 1.915 10.15 3.77 16.79 9.376 22.364 18.894 3.957 6.757 4.547 8.871 4.77 17.116.523 19.358-12.556 36.458-31.11 40.676-8.23 1.871-17.652 1.204-23.89-1.69-1.455-.675-2.902-1.23-3.218-1.23-1.496 0-9.624-6.56-12.783-10.32-5.863-6.974-9.474-16.666-9.474-25.423 0-6.2 3.727-18.357 6.897-22.5 3.568-4.663 9.238-10.56 10.15-10.56.409 0 1.745-.705 2.97-1.562 4.795-3.352 12.834-5.243 20.55-5.316m812.748 2.202c-2.2-.07-7.173 3.41-7.173 5.194 0 1.35 1.34 1.546 2.106.307.9-1.458 2.205.07 2.054 2.402-.07 1.223-.1 2.507-.05 2.853h-.003c.188 1.33 1.59.548 2.029-1.132.254-.97.83-1.534 1.28-1.255 1.154.713 3.274-.234 3.843-1.716.672-1.75-1.677-5.95-3.684-6.586-.12-.04-.257-.06-.404-.07zm-.61 2.46c1.315-.013 3.037 1.786 2.306 2.97-.786 1.27-1.752 1.15-3.018-.375-.82-.985-.84-1.525-.1-2.268.226-.226.507-.326.81-.329zm8.428 5.975c-1.316.02-7.434 5.21-7.434 6.402 0 1.565 2.224.611 5.246-2.253 3.446-3.265 3.516-3.387 2.342-4.113-.04-.03-.09-.04-.154-.04zm-525.12.324c-1.702.04-3.441.715-4.898 2.171-2.954 2.953-2.877 8.08.154 10.464 1.216.956 3.432 1.74 4.923 1.74 4.216 0 7.138-2.786 7.138-6.81 0-4.62-3.572-7.644-7.317-7.565m527.077 2.438a.75.75 0 0 0-.517.23c-.64.65-.438 1.25.702 2.09 1.527 1.127 1.453 1.314-1.67 4.174-2.667 2.441-3.04 3.137-2.024 3.764.904.56 1.97.07 3.888-1.787 2.222-2.153 2.915-2.414 4.355-1.644 3.96 2.118 3.573.258-.845-4.072-1.965-1.926-3.154-2.784-3.89-2.755m-526.437.19c3.5 0 5.574 3.288 4.186 6.636-.554 1.338-1.827 2.651-2.828 2.92-2.69.72-2.93.662-4.76-1.168-3.37-3.37-1.333-8.39 3.402-8.39m536.638 9.321c-.587-.01-1.703.77-3.643 2.428-1.615 1.382-3.22 2.513-3.566 2.514s-.63.567-.63 1.26c0 .692.416 1.26.927 1.26 1.513 0 7.465-5.076 7.465-6.366 0-.714-.152-1.089-.553-1.096m4.068 4.942c-.995 0-7.706 5.273-7.706 6.054 0 1.014 1.19.791 2.987-.569 2.794-2.11 3.61-1.584 3.126 2.028-.25 1.825-.228 3.9.05 4.615h.003c.726 1.89 1.443 1.635 5.083-1.813 3.397-3.218 2.884-4.8-.78-2.402l-2.074 1.357V76.85c0-2.49-.295-4.535-.66-4.63l-.031-.004zM76.43 73.926c-2.565-.07-4.551 1.455-6.456 4.681-1.257 2.13-1.655 3.8-1.296 5.434.646 2.938 3.42 6.547 5.764 7.493 3.033 1.225 6.453.894 8.925-.865 4.878-3.472 3.987-11.8-1.593-14.935-2.06-1.157-3.805-1.768-5.344-1.808m1.49 2.51c.799.003 1.634.108 2.49.323 1.969.493 2.752 2.138 3.48 7.303.362 2.57.078 3.31-1.85 4.825-2.863 2.25-3.651 2.24-7.142-.113-3.88-2.614-5.003-6.605-2.72-9.675 1.297-1.748 3.35-2.672 5.743-2.663m576.325 5.613a12.3 12.3 0 0 0-2.715.338c-1.074.27-3.094 1.603-4.49 2.965-1.95 1.906-2.535 3.22-2.535 5.7 0 3.694 1.06 5.341 4.622 7.201 2.648 1.383 7.657 1.737 12.066.856 1.884-.377 2.623-.997 2.623-2.197 0-1.344-.372-1.558-1.89-1.096-7.703 2.34-12.001 1.672-13.834-2.157-2.8-5.848 4.896-11.708 10.657-8.112 2.01 1.255 3.222.244 2.013-1.685-.715-1.144-3.675-1.873-6.517-1.813m270.14 2.09c-.966-.04-2.054.206-3.806.696-1.875.526-3.135 1.076-3.126 1.342v.02l.004.003.004.02.004.003c.02.03.06.05.107.07.55.184 1.004 1.112 1.004 2.07 0 .956.964 3.003 2.142 4.546 2.414 3.164 3.37 3.388 6.138 1.45 1.342-.94 1.667-1.62 1.06-2.228-.606-.607-1.273-.544-2.182.21-1.09.904-1.594.837-2.977-.415-2.057-1.86-2.146-4.29-.194-5.31 1.653-.867 5.246.174 5.246 1.52 0 .477.567.865 1.26.865 2.33 0 1.284-2.53-1.618-3.913-1.26-.6-2.102-.912-3.07-.947zm-39.814 1.08c-.91-.008-1.784.613-3.7 2.151-2.187 1.758-3.955 4.25-5.23 7.386-2.43 5.97-2.453 6.1-2.552 12.916-.07 4.843.32 6.465 2.68 11.114 3.938 7.757 11.287 13.288 20.145 15.165v.004c2.54.537 5.987.854 7.655.707 7.87-.699 18.9-7.308 17.89-10.72-.81-2.74-2.802-3.996-4.718-2.97-1.314.702-1.95.437-3.453-1.45-1.013-1.27-2.407-3.692-3.1-5.382-1.991-4.86-5.1-8.85-8.192-10.515-3.207-1.726-9.438-7.826-9.438-9.24 0-.507-.92-1.344-2.05-1.859-1.531-.697-2.012-1.517-1.89-3.242.125-1.77-.375-2.576-2.141-3.44-.801-.394-1.36-.62-1.906-.626zm.307 2.438c.866-.04.363 1.798-1.552 3.97-3.735 4.234-5.244 8.025-5.693 14.304-.31 4.33-.06 6.41 1.092 8.84 1.804 3.825 5.096 8.33 7.956 10.893 1.54 1.382 1.744 1.89.78 1.91-2.328.05-10.264-9.757-11.19-13.822-1.163-5.124-1.17-6.392-.07-11.114 1.214-5.2 4.46-11.653 7.035-13.982.755-.682 1.3-.983 1.64-.999zm-197.582 1.045a.52.52 0 0 0-.394.215c-.91 1.18-6.286 9.985-6.297 10.31.004 1 2.623.267 3.054-.856.658-1.715 6.045-1.64 7.982.113 1.368 1.241 1.569 1.25 2.024.06.82-2.138-4.5-9.973-6.37-9.844zm18.65.02-.287 4.275c-.311 4.571.31 5.706 2.25 4.098.958-.795 1.775-.64 3.95.753 1.508.965 3.19 1.764 3.74 1.772 1.892.03 1.963-1.553.128-2.837-1.564-1.095-1.637-1.366-.497-1.803 1.85-.71 2.467-2.71 1.435-4.64-.704-1.316-1.785-1.619-5.79-1.619zm-348.668.377c-2.497.153-5.313 1.918-5.313 4.082 0 2.17 2.242 4.21 4.627 4.21 2.51 0 3.397 1.36 1.987 3.058-.772.931-2.005 1.184-4.267.88-2.294-.308-3.187-.112-3.187.687 0 .61.473 1.298 1.05 1.531 2.189.883 6.203.504 7.998-.753 3.603-2.523 1.648-7.828-2.91-7.898-1.012-.01-2.101-.444-2.42-.957-.86-1.395 1.425-2.487 4.049-1.936 2.438.512 2.98-.32 1.3-1.997-.71-.71-1.78-.977-2.914-.907m310.63.508c-.736.004-1.594 1.317-2.243 3.744-1.305 4.88-1.273 5.444.272 5.444.704 0 1.636-.947 2.075-2.1.67-1.762 1.342-2.1 4.2-2.1 2.293 0 3.538.412 3.803 1.26l.784 2.52c.216.692 1.017 1.26 1.778 1.26 1.029 0 1.25-.487.865-1.89-.285-1.038-.755-3.304-1.045-5.035-.552-3.3-1.448-3.97-2.587-1.935-.373.666-1.932 1.43-3.47 1.7-2.326.41-2.866.21-3.237-1.209-.294-1.124-.72-1.662-1.194-1.66zm31.864.05a2 2 0 0 0-.446.06c-1.216.231-1.563 1.248-1.757 5.171-.214 4.306-.06 4.846 1.26 4.595 1.2-.228 1.549-1.266 1.752-5.173.196-3.788.113-4.663-.81-4.65zm-394.144 1.11c-1.02.03-2.045.136-2.966.308-3.114.584-2.936 2.115.246 2.115 1.896 0 2.05.312 2.05 4.15 0 2.28-.277 4.19-.437 5.943 1.655.577 1.994.122 2.84.17.034-1.775.117-3.517.117-6.058 0-3.838.14-4.11 2.306-4.358 1.27-.147 2.222-.64 2.116-1.102-.182-.79-3.212-1.27-6.271-1.167zm404.816.05a4.5 4.5 0 0 1 2.27.532c1.714.917 1.72.984.2 2.095-2.461 1.8-4.61 1.335-4.61-.999 0-.974.946-1.575 2.14-1.628m230.48.773c-1.11-.04-.41 2.025 1.373 3.934l1.885 2.023-4.836 4.322c-2.661 2.38-4.833 4.612-4.827 4.958.03 1.516 2.227.354 5.974-3.15 4.195-3.922 5.607-4.46 7.286-2.78.546.545 1.25.736 1.563.424 0-.002.01-.01.01-.018.37-.752-7.134-9.536-8.315-9.706l-.113-.01zm-252.603.584c.635.03 1.109.464.676 1.111-.37.554-.354 1.425-.784 1.69-.998.617-2-.95-1.317-2.058a1.59 1.59 0 0 1 1.425-.743m197.869.451a.2.2 0 0 1 .07.004c.46.15 2.354 2.232 4.2 4.625s5.244 5.626 7.552 7.18c5.476 3.687 7.428 5.998 8.828 10.448.632 2.01 2.209 4.785 3.505 6.172s2.356 2.685 2.356 2.883v.012c-.103.234-1.798 1.114-3.847 1.993-5.154 2.208-10.685 2.067-15.878-.41-8.274-3.946-11.235-8.37-11.953-17.854-.44-5.817-.29-6.63 1.962-10.806 1.278-2.367 2.674-4.214 3.202-4.25zm-568.373 1.403c-.16 0-2.117 1.946-4.35 4.323-3.088 3.054-2.957 3.906-1.537 4.956.51.377 2.852-1.68 2.95-1.756.55-.432 1.81.05 4.72-.12 1.199-.069.906 3.497 3.966 1 .822-.672-5.156-8.349-5.744-8.399zm131.29.133c-3.493.107-5.37 1.335-2.48 2.09 1.515.396 1.875 1.09 1.875 3.61 0 1.716.242 3.362.538 3.657 1.112 1.113 1.977-.47 1.977-3.605 0-2.73.303-3.294 1.89-3.519 3.427-.486 1.963-1.94-2.218-2.207a17 17 0 0 0-1.583-.03zm-41.086.102c-3.873-.04-4.638 2.636-2.705 8.8.237.755 1.366.904 3.92.517 8.444-1.282 8.898-7.738.64-9.132a12 12 0 0 0-1.855-.185m-36.674.385c-1.67-.08-4.14-.03-7.42.16-2.03.115-1.02 1.631 1.26 1.894 1.92.22 2.324.688 2.405 2.78.053 1.385.147 2.832.21 3.212.062.38.775.555 1.583.39 1.13-.233 1.413-1.002 1.23-3.355-.206-2.628.03-3.095 1.68-3.33 1.055-.149 1.815-.648 1.69-1.11-.092-.349-.967-.562-2.638-.64zm28.215.22c-.333.02-.59.627-.59 2.028 0 2.668-.075 2.67-4.272.02-4.695-2.964-6.076-2.52-5.995 1.935.034 1.961.098 3.76.134 3.99.034.23.44.42.9.42.9 0 1.115-.99.872-3.99-.204-2.52.319-2.399 4.53 1.05 5.007 4.101 6.18 3.906 5.973-.999-.11-2.623-.958-4.484-1.552-4.456zm-19.756.02c-1.453.018-6.852 5.905-6.855 7.476v.004c.008 1.128 1.414 1.167 2.1.06.286-.462 2.173-.84 4.197-.84s3.91.38 4.196.84c.702 1.135 2.94 1.065 2.94-.09 0-1.649-5.136-7.466-6.578-7.446zm42.58.05c-.703.03-.621 1.624.524 4.162 1.172 2.6 1.948 3.345 3.279 3.155 1.128-.162 1.66-.765 1.5-1.716-.135-.807.16-1.47.657-1.47.496 0 1.147.662 1.445 1.47s.944 1.746 1.44 2.085c.495.34 1 .623 1.12.63.623.04 3.554-5.638 3.557-6.883.004-2.008-2.22-1.007-2.87 1.29-.5 1.777-.552 1.782-1.73.241-.67-.873-1.375-2.003-1.57-2.515-.211-.56-1.102-.204-2.248.896l-1.906 1.824-1.48-1.824c-.764-.94-1.348-1.36-1.717-1.347m35.72.19a.36.36 0 0 0-.21.07c-.977.602-2 5.46-1.367 6.482.618.995 1.82.955 2.464-.09.286-.46 1.606-.839 2.936-.839s2.655.38 2.94.84c1.224 1.978 2.937.782 2.937-2.049 0-3.346-1.48-4.699-2.946-2.694-1.49 2.036-5.145 1.792-5.713-.378-.214-.819-.65-1.355-1.04-1.342zm-17.593.445c-.575.07-1.173 1.23-1.394 3.544-.178 1.87-.155 3.567.052 3.774s.88.374 1.496.374c.767 0 1.117-1.187 1.117-3.774 0-2.658-.62-3.993-1.27-3.918zm-111.17.225c-.168-.01-.37.02-.61.06-1.867.353-2.58 5.22-1.034 7.082.682.822 2.206 1.16 4.468.994 4.055-.297 4.247-1.747.313-2.346-2.56-.39-2.74-.627-2.485-3.22.184-1.896.079-2.53-.651-2.572zm10.017.07c-.61.003-1.38 1.405-1.721 3.912-.263 1.93-.296 3.694-.072 3.918.225.224 2.265.405 4.535.405 4.702 0 5.328-1.91.773-2.36-2.437-.242-2.664-.515-2.664-3.218 0-1.82-.376-2.66-.85-2.658zm69.777.763c.868.018 1.868.362 2.864 1.09 1.357.993 1.428 1.37.476 2.515v.004c-1.411 1.7-5.005 1.755-5.646.09-.87-2.269.395-3.75 2.306-3.698zm-29.578.993c.38-.019.776.1 1.076.4.537.537.375.993-.466 1.316-.71.272-1.494.16-1.747-.25-.467-.754.3-1.429 1.137-1.466m-62 .246a1.3 1.3 0 0 1 1.154.835c.306.796-.097 1.203-1.19 1.203-1.91 0-2.216-1.284-.465-1.956.163-.06.336-.09.502-.08zm539.19 2.873c-1.8 0-4.113.588-5.14 1.306-3.77 2.64-1.538 13.684 3.11 15.39 5.373 1.973 6.807.444 2.235-2.38-2.59-1.6-4.688-5.226-4.688-8.088 0-1.714 2.465-3.708 4.586-3.708 2.86 0 7.196 4.323 6.604 6.587-.373 1.426-.103 1.802 1.3 1.802 3.035 0 2.283-3.89-1.48-7.65-2.67-2.67-3.85-3.259-6.527-3.259m91.889 7.898c-3.556-.03-10.33.712-11.118 1.434-.46.422.316.943 1.875 1.255 2.652.53 6.799 3.905 6.983 5.685.05.514.185 1.31.292 1.772.108.462.254 1.185.323 1.608.273 1.644 1.423-.687 2.777-5.629.777-2.84 1.23-5.459 1.009-5.818-.128-.207-.957-.298-2.142-.307zm-611.615.512c-3.96.02-4.73 1.145-5.205 7.56-.24 3.231-.282 6.043-.093 6.32l.004.004.004.004c1.395 1.393 4.082-1.275 3.018-2.996-.234-.38 1.088-.943 2.936-1.255s4.17-1.229 5.164-2.033c3.615-2.926 0-7.636-5.83-7.606zm610.329 1.296c.332-.01.658.09.907.333.402.402.474 1.137.163 1.64-.726 1.174-1.884 1.164-2.618-.02-.542-.878.549-1.909 1.548-1.95zm-609.304 1.332c2.683-.04 3.786 1.7 2.157 3.661-.57.686-2.15 1.25-3.51 1.25-2.2 0-2.44-.254-2.203-2.31.222-1.923.718-2.35 2.997-2.57q.29-.03.559-.03zm106.327 1.316c-1.024-.03-2.942.05-4.924.225-4.847.43-6.118 1.714-2.546 2.57 1.53.37 1.963 1.077 2.044 3.36.057 1.59.15 3.206.21 3.59.06.385.576.544 1.153.355s1.165-1.92 1.307-3.847c.202-2.742.596-3.503 1.803-3.503 1.647 0 3.01-2.224 1.645-2.678-.112-.04-.35-.06-.692-.07zm-91.91.225c-2.087-.08-4.22.625-5.492 2.243-1.905 2.42-1.67 4.993.62 6.791 3.916 3.078 11.878-.716 10.77-5.13-.605-2.408-3.214-3.803-5.898-3.904m35.045.02c-6.08 0-9.05 4.67-5.33 8.388 3.54 3.537 11.755 1.35 11.755-3.13 0-3.433-2.233-5.26-6.425-5.26m-22.994.118a12 12 0 0 0-1.256.03c-3.343.28-5.222 2.366-2.131 2.366 1.468 0 1.747.516 1.747 3.216 0 1.77.25 3.473.559 3.78 1.326 1.326 1.962.315 1.962-3.13 0-2.666.386-3.836 1.399-4.225 2.09-.8.49-1.956-2.28-2.038zm65.513.302c-1.57 0-2.76 8.043-1.332 9.004 2.1 1.413 2.276.91 2.53-7.12.039-1.145-.434-1.884-1.198-1.884m-34.414.21v3.95c0 4.332 1.753 5.06 2.516 1.044l.42-2.213 3.78 2.54c2.078 1.396 3.9 2.89 4.054 3.324.153.434.816.79 1.47.79.775 0 1.234-1.026 1.317-2.94.07-1.616.163-3.404.21-3.975.046-.57-.58-1.16-1.39-1.316-1.016-.196-1.464.25-1.464 1.454 0 2.165-.4 2.174-3.366.06-1.302-.927-3.536-1.918-4.96-2.203zm-43.954 1.045c3.998 0 6.039 4.15 2.874 5.844-1.9 1.016-2.356 1.018-4.877.004-1.04-.418-1.891-1.309-1.891-1.982 0-1.593 2.29-3.867 3.894-3.867zm604.262.932c-.698-.004-1.353.462-2.141 1.382-.696.812-2.324 2.25-3.623 3.196l-2.362 1.721 2.255 2.68c1.325 1.574 3.045 2.677 4.175 2.677 2.045 0 4.179-1.866 3.223-2.822-.314-.314.255-1.15 1.265-1.859 2.307-1.617 2.31-2.68.01-5.127-1.161-1.236-2.01-1.844-2.801-1.848zm-567.553.04c3.172.116 4.19 1.581 2.557 3.912-2.228 3.18-8.457 1.576-7.777-2.002.234-1.235 1.125-1.684 3.73-1.875.54-.04 1.037-.05 1.49-.04zm478.477.82c-.581-.02-1.784.676-3.838 2.1-3.248 2.25-4.213 4.501-1.932 4.501.692 0 1.26-.379 1.26-.84 0-1.846 2.64-.68 4.177 1.843 1.202 1.976 1.39 2.97.722 3.775-1.494 1.8 1.704 5.255 4.888 5.275 2.009.011 6.466 4.721 5.677 5.997-.275.444-.282 1.391-.011 2.1 1.42 3.7 4.166-2.226 3.689-7.959l-.256-3.063-5.15.287c-6.17.345-7.29-.716-4.175-3.964 2.818-2.94 2.767-3.715-.205-3.063-1.935.425-2.65.134-3.725-1.506-.733-1.117-1.123-2.833-.866-3.815.287-1.097.256-1.657-.256-1.67zm88.912 1.971c.43.004.976.304 1.378.79.577.693.654 1.372.19 1.658-.433.267-1.221-.05-1.758-.692-.577-.695-.653-1.373-.19-1.66a.7.7 0 0 1 .38-.098zm-3.212 2.95c1.368 0 3.207 2.837 2.377 3.667-.78.78-1.468.653-2.598-.477-1.39-1.389-1.265-3.19.22-3.19zM29.17 123.367c-3.151.07-6.266.515-6.548 1.25-.334.87.287 1.278 2.219 1.464l2.684.262.062 5.874c.033 3.23.128 6.155.21 6.505.267 1.107 1.632.66 2.157-.707.28-.73.507-3.69.507-6.58v-5.26l2.608-.07c2.97-.09 3.675-.525 2.884-1.803-.443-.717-3.632-1.007-6.783-.933zm934.94.706c-.677.008-2.123.87-4.077 2.786-1.992 1.955-3.625 3.758-3.673 4.052v.008c0 .25 1.21 1.74 2.684 3.313 1.69 1.802 2.81 2.47 3.033 1.803.195-.582-.444-1.858-1.42-2.832l-1.772-1.767 3.028-3.104c2.615-2.676 3.127-4.27 2.198-4.26zm-48.057 1.9c.783-.018.637.53-.707 1.65-1.084.902-3.89 2.212-6.235 2.91-6.22 1.845-17.014 1.141-19.423-1.266-1.525-1.524.11-1.678 3.366-.318 4.33 1.81 13.098 1.214 18.147-1.229 2.362-1.143 4.07-1.728 4.852-1.746zm-701.541 2.88c-2.603-.1-4.237 1.332-4.56 4.096-.19 1.622-.045 3.75.317 4.727.74 2 2.352 1.508 2.352-.717 0-1.034.78-1.507 2.726-1.654 5.567-.425 6.353-4.74 1.116-6.14a8.8 8.8 0 0 0-1.952-.313zm-95.04.358c-.62.02-1.215 1.707-1.353 5.121-.147 3.63.043 4.18 1.455 4.18 1.394 0 1.597-.535 1.43-3.77-.192-3.682-.875-5.552-1.533-5.53m-18.517.07c-1.191 0-1.02 1.006.902 5.35 1.948 4.402 3.64 4.952 4.826 1.573l.81-2.305.917 2.305c.505 1.27 1.276 2.31 1.716 2.31 1.795 0 5.118-4.937 5.118-7.606 0-1.785-1.89-.605-2.772 1.731-1.157 3.064-1.71 3.143-2.95.42-1.188-2.604-2.985-2.699-4.094-.215-.827 1.852-.865 1.837-2.25-.84-.774-1.496-1.773-2.724-2.223-2.724m-60.165.017c-1.113.106-7.807 8.083-7.808 9.321 0 1.081 1.148.888 2.987-.5 1.839-1.39 7.926-1.734 7.926-.447 0 .462.568.84 1.26.84s1.255-.603 1.255-1.336c0-1.749-4.336-7.857-5.594-7.877zm41.12.08a12 12 0 0 0-1.188.06c-2.77.266-2.783.287-2.7 4.583.046 2.375.352 4.756.682 5.29.725 1.173 7.582.835 7.582-.374 0-.46-1.42-.957-3.15-1.1-3.37-.28-4.23-1.71-1.466-2.433 2.22-.58 2.13-1.59-.21-2.3-1.686-.51-1.532-.687 1.465-1.654 2.527-.816 3.018-1.234 1.973-1.685-.573-.247-1.777-.39-2.987-.385zm100.595.224c-.656-.018-1.198.425-1.854 1.235-.803.99-1.894 1.803-2.424 1.803s-.713.4-.41.89c1.137 1.84-1.917 3.79-5.41 3.458-3.18-.304-3.36-.478-3.602-3.386-.17-2.05-.674-3.062-1.516-3.062-1.58 0-2.15 4.688-.861 7.093.78 1.46 1.738 1.72 6.373 1.72 4.073 0 5.578-.319 5.938-1.259.583-1.517 7.03-1.75 8.475-.307.523.522 1.583.705 2.356.41 1.187-.456.91-1.094-1.772-4.098-2.79-3.123-4.2-4.46-5.293-4.497m-131.473.1-.261 4.092c-.143 2.25-.053 4.636.204 5.306.348.907 1.498 1.127 4.458.86 2.194-.199 4.654-.645 5.462-.994 1.779-.765 1.914-3.228.256-4.604-.665-.552-1.322-1.827-1.466-2.832-.227-1.598-.785-1.829-4.457-1.829zm77.646 0c-4.956 0-7.13 1.425-2.966 1.946 1.876.235 2.126.66 2.126 3.636 0 4.298 1.987 4.004 2.357-.348.202-2.382.648-3.087 2.095-3.293 3.82-.543 1.22-1.94-3.612-1.94m64.822.153a.7.7 0 0 0-.46.206c-.926.924-1.634 7.404-.933 8.537.868 1.406 2.044-.133 2.044-2.673 0-2.467.019-2.479 2.12-1.1 1.98 1.3 2.227 1.298 3.726-.06 1.75-1.583 3.777-.988 3.053.895-.59 1.54.299 3.81 1.26 3.217.414-.256.754-2.33.754-4.61 0-4.657-.94-5.175-5.021-2.766-2.23 1.317-2.431 1.296-4.278-.425-.905-.842-1.712-1.269-2.265-1.224zm-45.932.364c-.46.003-1.043.403-1.803 1.163-1.664 1.664-4.48 1.6-5.744-.128-1.598-2.185-2.95-.539-2.95 3.596 0 3.163.243 3.74 1.47 3.487.85-.174 1.363-.91 1.22-1.75-.524-3.04 5.637-2.857 7.039.21 1.316 2.877 2.81.83 2.28-3.125-.317-2.362-.744-3.457-1.512-3.452zm-80.438.123c-.533-.004-1.204 1.346-1.517 3.74-.405 3.102-.223 4.254.8 5.07 1.126.9 6.436.708 7.577-.273.894-.767-1.157-2.043-3.284-2.043-2.477 0-2.69-.318-2.818-4.195-.052-1.568-.37-2.296-.758-2.3zm904.303.302-3.76 3.688c-2.07 2.03-3.761 4.067-3.761 4.522s1.013 1.886 2.254 3.181c3.539 3.692 5.018 2.927 1.942-1.004-.902-1.154-1.65-2.379-1.66-2.725-.03-.938 3.155-.76 3.755.21.286.462 1.13.84 1.875.84 1.1 0 1-.383-.533-2.013-2.216-2.358-.875-4.004 1.506-1.849 3.232 2.923 3.712.151.497-2.868zm-915.667.318c.935 0 1.552.442 1.373.978-.348 1.044-2.756 1.675-3.51.922-.816-.817.4-1.9 2.137-1.9m159.053.05q.363.015.733.09c.744.153 1.347.66 1.337 1.12-.027 1.165-3.985 1.556-4.662.461-.562-.909.9-1.752 2.592-1.675zm-32.027.793h.019c.148.03.71.59 1.266 1.26.872 1.05.758 1.255-.707 1.255-1.216 0-1.61-.384-1.276-1.255.25-.648.548-1.19.687-1.255h.004zm-142.35.246c.487-.01.966.308 1.224.98.348.905-.017 1.29-1.224 1.29-.957 0-1.58-.44-1.394-.994.275-.826.84-1.262 1.394-1.276m837.826.544c.16.008.34.09.527.276.279.28.348.984.154 1.567-.285.854-.486.856-1.015 0-.546-.885-.235-1.865.333-1.843zM54.962 135.3c.273-.02.576-.012.896.02 1.73.165 2.726.717 2.726 1.504 0 1.234-3.942 2.09-4.955 1.076-1.305-1.305-.585-2.49 1.332-2.602zm833.235 4.158c-2.363.06-7.76 4.442-7.076 6.223.26.677.786 1.23 1.169 1.23 1.09 0 7.182-6.524 6.722-7.18l-.004-.005-.004-.004c-.188-.186-.467-.27-.804-.262zm4.729 4.938c-1.328.176-6.811 5.831-5.78 5.997.438.07 1.362.166 2.055.215.864.06 1.255 1.003 1.255 3.017 0 1.614.378 3.215.84 3.554 1.414 1.038 2.1.715 2.1-.983 0-1.147.676-1.698 2.306-1.885 3.387-.39 3.663-4.237.539-7.498-1.277-1.332-2.743-2.417-3.26-2.417-.018 0-.04-.003-.058 0zm.169 3.093c.773-.019 1.716.343 2.397 1.096 1.012 1.12 1.185 1.964.61 2.991-.74 1.32-.943 1.29-2.592-.359-.986-.985-1.794-2.133-1.794-2.545 0-.769.605-1.165 1.379-1.183m-754.76 2.791c-3.474.19-5.207 2.32-5.974 6.67-.48 2.723-5.561 9.26-7.198 9.26-.36 0-2.64 1.253-5.072 2.785-2.433 1.531-5.747 3.293-7.363 3.913s-5.586 2.526-8.817 4.24a1763 1763 0 0 1-12.896 6.756c-3.861 1.998-7.583 4.497-8.275 5.551-2.617 3.994 1.107 9.48 6.436 9.48 3.149 0 3.36.185 6.896 6.218 4.958 8.46 6.776 11.448 8.259 13.552.692.982 2.396 3.451 3.78 5.485 2.523 3.703 8.68 9.927 9.864 9.967 1.4.05.5 2.584-1.348 3.795-2.88 1.887-5.098 6.432-4.432 9.085.305 1.212 1.585 2.767 2.849 3.452 3 1.628 4.74 1.61 8.008-.07 2.303-1.185 8.119-5.492 11.159-8.265.506-.462 2.733-2.349 4.95-4.195 2.215-1.846 4.883-4.112 5.927-5.035 9.703-8.58 14.843-13.174 18.414-16.45 3.98-3.654 4.434-3.85 8.392-3.595 5.28.337 9.34-2.092 9.904-5.93.703-4.793-3.098-18.93-7.393-27.504-2.16-4.31-8.024-13.203-9.91-15.032-8.364-8.115-11.197-10.087-17.865-12.43-3.502-1.23-6.21-1.814-8.295-1.7zm.548 2.981c.824-.03 1.977.234 3.966.758 11.57 3.052 24.03 14.78 29.5 27.77.96 2.277 2.296 5.152 2.973 6.391 1.335 2.444 2.672 8.007 3.448 14.346.706 5.776-1.13 7.663-6.881 7.073-4.21-.432-4.22-.424-9.71 4.732-3.022 2.84-9.058 8.052-13.412 11.585s-10.75 8.957-14.213 12.051-7.98 6.717-10.032 8.051-4.351 2.428-5.113 2.428c-1.58 0-4.165-2.557-4.165-4.118 0-1.74 9.17-10.114 20.207-18.453 20.72-15.653 23.63-19.78 20.888-29.654-1.067-3.84-7.933-14.093-11.108-16.589-4.458-3.505-12.091-1.965-27.543 5.552-3.214 1.563-6.045 2.843-6.292 2.843s-3.168 1.302-6.486 2.893c-8.602 4.126-14.755 5.967-16.431 4.917-1.928-1.207-2.158-4.313-.461-6.187.795-.878 8.848-5.32 17.9-9.87 24.778-12.452 29.47-15.883 29.47-21.525 0-1.523.658-3.283 1.508-4.05.67-.609 1.164-.918 1.987-.944m.83 9.767c-2.005.13-.974 1.965 3.064 3.652 5.258 2.195 13.227 8.895 16.385 13.772 3.794 5.86 5.108 9.133 6.41 15.97.57 3 1.2 5.987 1.404 6.641.22.71.667.88 1.106.42.898-.939-.326-9.259-2.203-15-1.26-3.855-7.03-13.21-9.95-16.128-3.17-3.169-10.34-7.96-13.198-8.82-1.344-.404-2.35-.55-3.017-.507m-1.311 18.202c2.755.07 4.505 1.29 6.645 3.375 4.468 4.353 4.72 4.722 7.29 10.556 2.222 5.042 2.447 8.033.83 11.052-1.355 2.532-10.136 10.744-15.677 14.663-2.77 1.96-7.565 5.568-10.657 8.016-3.092 2.447-5.918 4.445-6.276 4.445-1.31 0-10.216-10.094-14.085-15.964-3.893-5.908-10.5-17.53-10.523-18.514-.013-.552 3.777-2.49 13.838-7.078 16.637-7.586 24.024-10.667 28.615-10.55m-121.457 5.971c.696-.01 2.306 1.294 6.384 4.67 8.97 7.43 13.878 12.188 19.848 19.232 6.395 7.547 6.187 7.27 7.747 10.285.732 1.414 1.632 2.7 2.003 2.857 1.015.43 9.724 16.248 12.63 22.94 2.61 6.013 7.185 20.56 8.074 25.674 3.38 19.455 3.833 31.325 1.727 45.347-.702 4.671-1.422 8.727-1.594 9.014-.172.288-.538 2.243-.82 4.348-.672 5.031-5.418 18.898-9.17 26.802-8.906 18.76-20.157 33.376-35.9 46.652-8.91 7.514-11.346 9.11-12.092 7.903-.595-.962 3.592-5.245 9.125-9.332 13.42-9.914 28.539-29.687 36.5-47.743 1.525-3.462 3.114-7.047 3.53-7.97 1.443-3.207 5.086-15.65 6.342-21.654.777-3.71 1.382-12.186 1.568-21.98.363-19.14-.954-28.358-6.24-43.637-1.916-5.539-3.62-10.632-3.787-11.324s-2.087-4.81-4.267-9.147c-4.463-8.88-12.352-20.63-17.261-25.71-1.8-1.864-3.274-3.846-3.274-4.405s-.284-1.022-.63-1.025-3.838-3.033-7.763-6.74a2196 2196 0 0 0-8.47-7.969c-.73-.676-1.72-1.229-2.202-1.229-1.55 0-2.891-2.35-2.613-4.579.098-.789.187-1.274.605-1.28m-.282 7.54c1.06 0 23.029 22.665 26.647 27.492 2.167 2.89 3.94 5.41 3.94 5.603s1.434 2.548 3.187 5.234c3.966 6.078 9.707 18.508 12.875 27.877 2.41 7.13 5.76 22.63 5.795 26.806.01 1.225.157 6.68.323 12.123.493 16.241-2.7 33.42-9.156 49.27-7.278 17.87-15.343 30.021-28.963 43.625-5.313 5.308-10.89 10.332-12.388 11.165l-2.726 1.516V300.097c0-57.946.213-105.356.466-105.356m575.38 17.462c-35.153.135-67.773 19.846-82.881 50.084-1.845 3.693-3.745 7.845-4.227 9.23-7.74 22.257-8.002 39.823-.907 61.243 10.639 32.122 40.146 56.671 74.162 61.7 6.69.99 23.782.913 29.332-.128 21.26-3.986 37.795-12.746 52.639-27.882 8.963-9.139 14.792-18.386 19.49-30.924 5.48-14.627 6.952-27.035 5.113-43.108-2.265-19.793-10.533-37.065-24.916-52.04-6.877-7.162-19.515-16.435-26.288-19.289-15.716-6.62-26.572-8.945-41.516-8.886m356.954 3.514h45.189l-.553 89.156c-.305 49.036-.602 90.666-.662 92.512l-.1 3.36-21.615.26-21.616.263-.07-31.728c-.04-17.45-.175-59.203-.316-92.778zm-356.958.496c12.39-.008 15.82.282 21.893 1.834 18.088 4.623 31.39 12.32 44.077 25.505 10.744 11.168 16.492 21.58 21.462 38.873 1.68 5.85 1.926 8.547 1.896 20.978-.04 17.956-1.577 24.61-9.366 40.425-12.04 24.451-39.994 44.14-67.081 47.241-15.806 1.81-28.321.486-43.52-4.599-4.468-1.495-18.406-9.137-22.64-12.414-20.051-15.522-31.7-35.124-34.752-58.484-2.574-19.695.125-35.637 8.874-52.445 7.89-15.157 23.254-30.135 38.6-37.628 3.61-1.763 7.188-3.534 7.952-3.934.762-.4 5.106-1.767 9.652-3.037 7.57-2.114 9.503-2.308 22.953-2.315m-420.55.343c-.335.07-2.221 2.294-4.242 5.004-2.053 2.753-4.397 5.234-5.205 5.511-.858.296-1.466 1.353-1.466 2.545v.004c0 2.567.879 2.58 3.264.04 1.659-1.766 2.564-1.987 7.767-1.88 4.635.1 6.06.432 6.702 1.578.772 1.38 3.253 2.078 3.253.917 0-1.635-8.86-13.72-10.057-13.72h-.015zm0 2.935 2.045 2.47c1.126 1.356 1.86 2.776 1.629 3.15-.23.371-1.881.674-3.674.674-4.17 0-4.583-.773-2.05-3.825zm94.175 1.26c-4.058 0-4.978 1.023-5.277 5.874-.181 2.93.038 3.715.973 3.504.663-.15 1.332-.623 1.486-1.05.586-1.626 5.82-.8 7.772 1.23 1.063 1.103 2.427 1.823 3.028 1.592q2.498-.96-1.05-3.283c-1.498-.98-1.878-1.668-1.26-2.285 2.72-2.72-.186-5.582-5.672-5.582m-45.942.68q-.916-.027-2.065.09c-6.015.634-7.858 8.46-2.25 9.552 5.203 1.012 8.967 0 8.967-2.412 0-.986-.354-1.069-1.624-.39-3.403 1.82-8.454.798-8.454-1.71 0-2.183 2.574-3.317 6.194-2.73 2.61.423 2.999.288 2.552-.877-.367-.953-1.49-1.465-3.32-1.526zm-35.48.16-.35 4.404c-.19 2.415-.202 4.684-.025 5.05.495.967 1.89-.164 1.89-1.536 0-1.768 2.855-1.475 4.616.47 1.916 2.12 3.204 2.166 2.547.1-.276-.87-.058-2.556.487-3.75 1.468-3.222-.178-4.737-5.155-4.737zm15.478.88c-1.323.07-3.024 2.46-4.258 6.46-.884 2.864.956 2.3 2.552-.785l1.383-2.679 1.178 2.26c.65 1.24 1.345 2.253 1.542 2.253s1.27-.979 2.383-2.177l2.024-2.182.906 2.597c.499 1.43 1.492 2.601 2.209 2.601 1.629 0 1.642.143-.415-4.506-1.84-4.157-3.552-4.914-5-2.208-.495.923-1.236 1.68-1.65 1.68-.415 0-.994-.757-1.287-1.68-.365-1.15-.921-1.67-1.567-1.634m66.21.05c1.623.004 3.35.624 3.35 1.588 0 1.483-3.62 2.067-5.45.881-.924-.6-1.007-1.058-.313-1.752.503-.502 1.44-.72 2.413-.717m-11.528.06c-.177.018-.37.098-.578.225-.886.547-1.08 5.898-.272 7.431.879 1.666 2.3-.272 2.3-3.134 0-3.103-.49-4.622-1.45-4.523zm-8.996.127c-.733.06-1.628.908-3.5 2.976-1.798 1.985-3.057 3.953-2.797 4.374v.004c.623 1.004 1.822.964 2.47-.08.72-1.165 5.744-1.054 6.952.154.546.55 1.238.75 1.537.451.713-.713-1.783-5.93-3.53-7.38-.41-.34-.748-.527-1.132-.497zm-16.918.57c-.763-.04-1.556.954-1.824 2.72-.228 1.5-.232 3.033-.011 3.41v.004c.222.376 1.056.09 1.854-.63 1.846-1.675 5.838-1.71 6.47-.06.869 2.26 2.733 1.45 2.404-1.045-.167-1.269-.332-2.783-.363-3.36-.082-1.472-2.296-1.31-2.88.21-.265.692-1.26 1.26-2.213 1.26-.952 0-1.948-.566-2.213-1.26-.318-.827-.767-1.225-1.225-1.249zm-41.26.09c.35-.013.762.006 1.256.058 1.736.167 2.73.717 2.73 1.51 0 .686-.567 1.31-1.26 1.378-2.277.24-4.196-.628-4.196-1.9 0-.68.426-1.007 1.47-1.045zm58.132 1.576c.46 0 .835.378.835.84s-.374.84-.835.84a.843.843 0 0 1-.84-.84c0-.462.378-.84.84-.84M39.996 235.852c-1.146 0-1.32.573-1.475 4.824-.088 2.427-.994 3.535-2.915 3.555-.837.008-1.016-.68-.651-2.505.377-1.887.195-2.52-.733-2.52-.68 0-1.29.38-1.347.84a17 17 0 0 1-.313 1.68 17 17 0 0 0-.312 1.727c-.058.488-.506.645-.994.343-.52-.32-.661-1.6-.338-3.068.47-2.147.324-2.467-1-2.212-1.2.23-1.552 1.054-1.552 3.641v3.344l5.457.426c3 .238 5.905.296 6.455.138 1.49-.426 1.22-10.212-.282-10.212zm-1.952 13.536c-1.095.08-1.305 1.73.128 4.026 1.592 2.547-.472 8.45-2.956 8.45-2.873 0-3.914-1.6-3.914-6.038 0-2.215-.302-4.03-.671-4.03-1.275 0-2.685 2.018-2.685 3.84 0 2.695 2.285 7.685 3.98 8.697 2.468 1.471 6.203.662 7.978-1.726 2.164-2.91 2.448-9.95.482-11.918-.953-.953-1.768-1.342-2.342-1.3m182.765.968c-2.51-.089-4.228 1.216-6.456 4.467-3.922 5.722-10.803 7.565-29.854 7.984-5.54.122-15.741-.06-22.666-.41-11.275-.563-12.89-.47-15.484.887-7.497 3.927-3.428 12.845 5.862 12.845 2.33 0 2.537.2 1.957 1.89-.356 1.038-.702 6.231-.764 11.54-.061 5.306-.408 13.516-.773 18.247-.637 8.246-.746 8.604-2.613 8.604-2.523 0-6.23 3.45-6.23 5.798 0 2.37 3.574 5.928 6.045 6.018 1.06.04 4.95.243 8.644.45 3.693.21 9.924-.003 13.848-.47s11.29-.904 16.37-.973c5.078-.07 10.936-.389 13.014-.702 4.416-.667 11.316.998 13.853 3.34.927.854 3.004 2.122 4.617 2.821 3.67 1.59 3.779 1.593 6.604.133 3.142-1.624 8.943-10.5 9.822-15.032 2.789-14.39 3.04-17.129 2.648-28.476-.423-12.238-.5-12.855-2.66-20.276-3.123-10.742-7.177-16.42-12.961-18.15-1.061-.32-1.987-.505-2.823-.535m751.706.784-9.023.236-.256 4.825c-.22 4.21.02 5.085 1.855 6.92 2.51 2.508 3.473 2.588 6.83.542 1.61-.983 3.514-1.415 5.169-1.173 4.317.634 6.125-3.929 4.498-11.35-.03-.13-4.11-.13-9.073 0m-751.404 2.346c4.42-.03 12.25 10.783 14.14 19.53 1.6 7.404 2.012 20.502.923 29.386-1.653 13.493-4.193 21.213-8.351 25.41-2.628 2.65-6.276 2.55-10.585-.293-5.2-3.43-8.943-4.042-21.027-3.43-30.336 1.532-41.19 1.73-44.574.802-3.6-.984-4.82-2.395-3.674-4.25 1.237-2 14.45-4.02 29.906-4.569 27.76-.984 30.633-1.283 34.122-3.534 1.732-1.117 3.146-2.425 3.146-2.909s.918-2.835 2.04-5.229c1.724-3.68 1.988-5.29 1.69-10.402-.467-8.01-2.212-12.135-6.327-14.986-4.187-2.9-12.087-3.675-40.686-3.995-18.44-.206-20.447-.372-23.081-1.905-2.103-1.223-2.954-2.349-3.13-4.153-.413-4.224 1.164-4.56 16.272-3.452 7.342.538 15.618.924 18.388.855s8.615-.216 12.993-.328c4.377-.112 8.536-.505 9.237-.876.7-.372 3.035-1.306 5.19-2.075 2.386-.85 5.51-2.996 7.978-5.49 2.23-2.254 4.666-4.102 5.41-4.107m756.906.06c.979.01 1.04.612.846 2.944-.29 3.446-1.537 4.442-3.14 2.51-1.628-1.96-.781-5.065 1.464-5.383.332-.05.604-.07.83-.07zm-7.537.018c1.435.04 1.738.49 1.994 1.83.442 2.311-.631 5.708-2.101 6.641-1.53.973-2.117.82-3.996-1.06-1.186-1.185-1.643-2.568-1.466-4.404.24-2.488.504-2.7 3.72-2.935.77-.06 1.37-.09 1.85-.07zM218.985 265.96c-.683.04-.593 2.156.784 5.45 4.352 10.412 5.11 29.364 1.578 39.375-.644 1.823-1.173 3.648-1.173 4.05 0 .404.538.733 1.193.733 1.569 0 3.835-9.89 4.427-19.303.48-7.654-1.87-21.692-4.586-27.385-.982-2.059-1.77-2.945-2.223-2.92m749.584.938c-2.926 0-6.337 3.703-6.337 6.878 0 3.272 2.185 7.308 4.452 8.22 1.015.41 2.25.765 2.746.794 2.067.122 6.23-6.268 6.23-9.562 0-2.076-4.763-6.33-7.09-6.33m-929.146.84c-.612 0-2.027.98-3.146 2.177-1.12 1.198-3.075 2.72-4.345 3.38s-2.306 1.744-2.306 2.408 2.29 3.112 5.093 5.444c5 4.16 7.53 4.893 5.815 1.69-.465-.87-1.22-1.81-1.68-2.095-1.347-.832-1.01-8.452.425-9.644 1.558-1.292 1.645-3.36.144-3.36m928.66 1.68c3.843 0 5.98 5.684 3.335 8.871-2.284 2.75-6.67.564-6.67-3.324 0-2.334 1.933-5.547 3.335-5.547m-933.825 5.357c.15 0 .305.04.46.138.43.266.78 1.025.78 1.69 0 1.385-1.323 1.618-2.095.37-.578-.935.046-2.196.855-2.198m122.118 3.191 7.767.343c4.27.19 15.33.475 24.578.636 18.738.326 21.804 1.06 24.9 5.935 1.422 2.241 1.587 3.644 1.23 10.556-.42 8.103-1.603 11.84-4.612 14.56-1.22 1.105-3.89 1.508-12.388 1.87-5.958.254-16.5.824-23.425 1.265s-13.965 1.016-15.642 1.28c-1.677.265-3.24.166-3.474-.224s-.111-2.6.272-4.907.72-10.299.748-17.756zm391.618 3.852c-1.633.224-2.121.707-2.121 1.546 0 .837 1.198 1.163 4.288 1.163h4.283l-.59 7.452c-.396 5.02-.275 8.038.365 9.234h-.004c2.26 4.22 3.306 1.583 3.623-9.137.232-7.845-.34-7.117 5.876-7.467.808-.05 1.47-.603 1.47-1.24 0-.88-1.965-1.248-8.187-1.53-4.59-.209-7.37-.246-9.002-.02zm420.745 2.71c-2.7 0-5.622 3.265-6.22 6.95-.402 2.471-.107 3.374 1.675 5.156 2.102 2.101 4.89 2.694 7.654 1.634 1.66-.636 3.812-4.62 3.812-7.052 0-2.412-4.425-6.69-6.921-6.69m-929.102 1.747c-.606.07-.793 1.242-1.02 4.594l-.282 4.15h-3.857c-4.06 0-5.37.58-4.493 1.996.737 1.193 9.834.412 10.677-.916 1.004-1.582.867-8.86-.18-9.506-.35-.218-.625-.34-.845-.317zm928.63.784c.018-.002.05 0 .07 0 3.158.04 5.04 3.803 3.447 6.884-1.696 3.278-5.178 3.04-6.465-.446-.65-1.76 1.459-6.315 2.946-6.438zm-338.54 1.091c-2.036-.06-4.006.14-4.616.645-.81.671-1.173 2.878-1.173 7.104 0 5.067.246 6.173 1.41 6.397 3.343.645 12.11.104 13.018-.804 1.628-1.627.167-2.132-5.605-1.946-4.96.16-5.462.02-5.462-1.5 0-1.37.648-1.72 3.566-1.932 1.962-.14 3.566-.634 3.566-1.096 0-.46-1.604-.959-3.566-1.1-2.517-.183-3.566-.633-3.566-1.532 0-.993.866-1.218 3.925-1.03 3.852.238 5.689-.94 3.54-2.268-.893-.55-3-.875-5.036-.938m-34.706.584c-6.147.02-6.458.4-6.168 7.58.235 5.814.378 6.214 2.35 6.684 3.215.765 10.352-.626 11.539-2.249 1.423-1.945 1.323-4.19-.21-4.778-.71-.272-1.255-1.52-1.255-2.858 0-3.393-1.43-4.389-6.256-4.38m-20.54.912c-1.458.05-2.907 1.562-5.057 4.47-1.85 2.506-3.755 4.795-4.226 5.087-.473.291-.856 1.07-.856 1.736 0 1.627 1.617 1.53 3.55-.22 2.197-1.987 12.4-2.69 12.4-.855 0 .696.629 1.507 1.398 1.802 3.012 1.156 2.597-1.07-1.204-6.448-2.691-3.807-4.353-5.629-6.005-5.572m33.708.04c-.9.04-1.035 1.186-1.035 5.971 0 3.41.197 6.4.435 6.653.394.38 4.96.362 11.107-.04 1.04-.069 1.886-.67 1.886-1.34 0-.908-1.324-1.28-5.17-1.466l-5.164-.25-.08-4.6c-.06-3.676-.373-4.657-1.547-4.886a2.4 2.4 0 0 0-.43-.05zm-14.33 1.695q.417-.029.91.02c1.75.167 2.727.713 2.727 1.52 0 1.315-3.795 2.22-4.857 1.157-1.38-1.38-.728-2.588 1.22-2.699zm-19.383 1.772c.36.004.71.206 1.153.574.718.595 1.3 1.412 1.3 1.818 0 .405-1.406.737-3.124.737h-3.12l1.819-1.823c.903-.903 1.448-1.312 1.972-1.306m21.304 3.846a32 32 0 0 1 2.346.03c1.717.07 2.31.525 2.31 1.772 0 1.453-.561 1.68-4.15 1.68-4.027 0-6.024-1.107-4.55-2.52.606-.578 1.947-.895 4.044-.957zm384.286 3.14c-.577.05-4.637.14-9.023.21-5.857.09-7.972.414-7.972 1.203 0 .591 1.225 1.548 2.726 2.126l2.73 1.05-2.735 2.28c-1.505 1.252-2.736 2.562-2.731 2.908.01 1.128 3.134.66 4.206-.63.575-.692 1.524-1.255 2.11-1.255.588 0 1.283.562 1.548 1.255.468 1.22 3.059 1.822 3.059.711 0-.302-.946-1.79-2.1-3.303s-2.101-2.945-2.101-3.186v-.03c.224-.236 2.68-.526 5.65-.657 4.368-.19 5.668-.535 5.668-1.506 0-.69-.473-1.227-1.05-1.178zm-946.89 1.65c-1.12-.02-2.29.582-3.34 1.894-1.094 1.367-1.467 8.685-.492 9.66.87.868 10.354.657 10.354-.232 0-.434-.328-.992-.727-1.24-.4-.246-.935-1.993-1.19-3.887-.52-3.87-2.465-6.16-4.605-6.197zm.067 3.026c1.33-.06 2.229 1.58 2.244 4.26.01 1.906-.353 2.31-2.086 2.31-1.842 0-2.1-.363-2.1-2.965 0-1.943.466-3.14 1.347-3.477q.31-.118.595-.128m932.108 9.085c-2.507 0-3.242 7.315-.964 9.593 2.89 2.89 6.235 1.004 6.235-3.513 0-1.666.346-2.606.84-2.3.463.285.84 1.818.84 3.406 0 3.398 1.378 3.794 2.542.732 1.165-3.063 1.06-3.554-1.235-5.848-2.777-2.777-4.46-1.907-5.144 2.663-.426 2.842-.893 3.68-1.931 3.477-1.425-.28-1.575-1.954-.533-5.9.465-1.763.313-2.31-.65-2.31M40.479 319.08c-.88.012-1.597 2.234-1.61 5.583-.013 3.833-1.85 4.705-2.376 1.127-.353-2.396-2.48-2.349-2.823.07-.43 3.027-1.924 2.174-2.208-1.26-.17-2.059-.675-3.145-1.466-3.145-.885 0-1.21 1.086-1.21 4.056 0 2.23.204 4.26.457 4.512h.005l.006.004c.602.424 11.41-.16 11.989-.656.71-.61.775-8.563.077-9.649-.285-.442-.57-.643-.84-.64zm926.477 8.4c-1.606-.004-2.732.07-2.987.23-1.527.944-.125 2.131 2.51 2.131 2.32 0 5.826 2.463 5.826 4.093 0 1.438-2.462 2.754-4.155 2.217-1.954-.62-5.077.153-5.077 1.255 0 .403 1.603.846 3.566.988 6.812.493 8.939-.985 7.475-5.183-.87-2.485-.831-2.53 1.91-2.53 1.536 0 3.229-.53 3.767-1.178.823-.99-.28-1.277-6.958-1.777a86 86 0 0 0-5.877-.246m-838.717 7.395c-.635 0-2.874 2.41-4.975 5.352s-4.385 5.824-5.077 6.397-1.26 1.567-1.26 2.203c0 1.93 3.074 1.292 4.539-.943 1.187-1.812 1.997-2.1 5.943-2.1 3.709 0 4.737.318 5.467 1.68.94 1.76 2.918 2.228 3.745.891.69-1.118-6.995-13.48-8.382-13.48m-94.923.702c-2.163-.003-3.69 3.025-3.69 8.164v3.723H35.5c3.693 0 5.876-.34 5.876-.916 0-.506-.752-1.116-1.675-1.358-1.077-.28-1.68-1.147-1.68-2.412 0-1.112.733-2.362 1.68-2.868 1.872-1 2.28-3.355.584-3.355-.6 0-1.491.4-1.983.891-.631.632-1.28.508-2.208-.42-.987-.986-1.93-1.448-2.777-1.45zm143.642 1.818c-7.588 0-10.847 8.54-4.34 11.37 4.157 1.808 8.946 1.226 8.946-1.086 0-.973-.617-1.14-2.66-.732-5.058 1.011-8.965-4.019-4.836-6.228 1.017-.544 3.113-.704 5.037-.379 2.1.355 3.3.236 3.3-.328 0-1.248-2.854-2.617-5.447-2.617m-143.247 1.26h.07c1.284 0 2.538 3.45 1.907 5.245-.203.576-1.106 1.044-2.008 1.044-1.382 0-1.598-.493-1.38-3.144.168-2.01.649-3.08 1.41-3.145m94.758.415c1.072 0 2.062 2.4 1.42 3.437-.566.915-4.577 1.032-4.54.133.047-1.088 2.214-3.57 3.12-3.57m37.115.06c-.807.02-2.11 1.044-3.67 2.996l-2.437 3.057-1.553-3.026q-1.554-3.029-2.792-2.556c-1.227.47-2.937 5.191-2.946 8.133-.01 2.881 2.9 1.206 3.356-1.93l.42-2.894 1.03 2.273c1.227 2.71 3.965 3.021 5.262.6 1.24-2.316 2.52-2.102 2.52.42 0 1.38.468 2.1 1.368 2.1 1.115 0 1.274-.588.85-3.15-.285-1.73-.527-3.806-.532-4.614-.006-.962-.324-1.42-.876-1.409m-21.304.08c-.934-.04-1.807.01-2.392.158-1.832.46-2.178 1.088-2.49 4.522-.2 2.195-.216 4.28-.036 4.625.55 1.058 1.933.7 2.444-.63.266-.692 1.023-1.26 1.68-1.26.658 0 1.41.567 1.676 1.26.62 1.612 4.504 1.67 4.504.07 0-.655-.474-1.367-1.05-1.583-.74-.278-.588-.747.512-1.593 2.41-1.855 1.416-4.326-2.086-5.193a14.4 14.4 0 0 0-2.761-.374zm84.384.01a14 14 0 0 0-2.014.02l-3.535.255-.25 4.825c-.204 3.907-.01 4.824 1.045 4.824.74 0 1.3-.718 1.3-1.675 0-2.174 1.51-2.137 3.895.102 2.425 2.278 5.534 1.597 3.438-.753-1.111-1.244-1.13-1.602-.118-2.53 2.644-2.423.617-4.79-3.761-5.065zm-42.038.07c-.68.02-1.436 1.342-1.83 3.626-.31 1.81-.693 3.837-.85 4.502-.156.665.376 1.355 1.184 1.531 1.102.24 1.47-.22 1.47-1.838 0-1.954.315-2.162 3.3-2.162 2.763 0 3.34.303 3.566 1.854.165 1.138 1.078 2.077 2.367 2.433 1.154.32 2.23.611 2.387.661.184.02 1.263-.685 2.419-1.593 2.516-1.978 6.56-2.213 7.25-.42.526 1.373 2.682 1.702 3.412.522.748-1.21-5.318-8.49-7.076-8.49-1.017 0-2.426 1.394-3.843 3.81-2.618 4.47-4.13 4.452-4.13-.04 0-3.305-1.687-4.977-2.607-2.582-.786 2.048-5.415 1.751-5.974-.385-.26-.99-.637-1.443-1.045-1.428zm29.352 1.045c-.916 0-1.31 1.082-1.445 3.984-.16 3.502.023 3.99 1.517 3.99 1.502 0 1.67-.464 1.445-3.99-.184-2.87-.61-3.984-1.517-3.984m-71.83.876c1.477-.05 3.025.7 2.756 1.541-.5 1.495-4.796 1.7-4.796.226 0-.685.473-1.404 1.05-1.598a3.5 3.5 0 0 1 .99-.17zm824.525.132q-1.154-.027-2.331.558c-3.027 1.508-4.233 4.643-3.208 8.354 1.323 4.79 3.329 4.07 2.73-.978-.387-3.272-.212-4.17.883-4.59 1.125-.432 1.362.107 1.362 3.125 0 6.423 4.48 7.448 6.21 1.418.619-2.154.453-3.113-.856-4.865-1.468-1.966-3.1-2.983-4.79-3.022m-740.311.277c2.95.03 3.043.105 1.516 1.26-1.755 1.327-3.21 1.564-4.104.671-1.28-1.28-.374-1.96 2.588-1.93m-24.265.815c.026-.003.054 0 .082 0 .435 0 1.022.378 1.307.84s-.07.834-.79.834-1.306-.373-1.306-.835c0-.433.31-.797.707-.84zm766.784 1.68c.243-.012.56.411.912 1.326.28.73.513 2.03.513 2.89 0 3.114-1.513 2.396-1.824-.866-.202-2.118-.01-3.332.4-3.35zm-934.89 8.39c-5.043 0-6.404.517-5.011 1.91.97.97 9.83.222 10.19-.86.256-.769-1.132-1.05-5.18-1.05zm936.294 4.962c-4.467-.04-8.84.207-9.028.768-.378 1.135 2.085 1.727 8.628 2.074 2.77.148 5.294.336 5.61.425 1.35.373 5.108-1.63 4.39-2.34-.572-.568-5.134-.89-9.6-.927m-948.206 1.751c-.925.08-1.168 1.36-1.168 5.9v5.9l9.442-.235c7.73-.195 9.443-.466 9.443-1.496 0-.952-1.026-1.26-4.196-1.26-3.917 0-4.202-.144-4.243-2.12-.094-4.56-2.894-5.35-2.894-.815 0 2.802-1.006 3.677-3.361 2.93-1.372-.435-1.676-1.27-1.676-4.666 0-3.12-.306-4.138-1.255-4.138q-.048-.002-.092 0m943.02 5.096c-4.077-.04-5.246.57-4.108 1.941.645.773 2.119 1.011 4.59.733 3.177-.358 3.699-.187 4.104 1.362.588 2.252 3.155 2.316 3.735.1.57-2.178 1.952-2.154 2.526.04.254.967 1.015 1.61 1.742 1.47 1.76-.343 2.089-1.713.815-3.423-.788-1.057-2.934-1.563-8.336-1.97-2.028-.155-3.708-.239-5.067-.252zM171.49 408.56c-114.793.518-117.64.57-121.462 2.182-5.202 2.193-6.416 4.61-6.794 13.506-.176 4.153.012 9.062.42 10.91.944 4.262.03 10.384-2.285 15.307-1.212 2.578-1.798 5.435-1.783 8.696.036 7.464 2.873 11.627 10.186 14.95 3.744 1.702 4.513 1.714 86.879 1.311 45.707-.224 84.806-.63 86.883-.9 11.96-1.56 16.466-13.02 10.13-25.752-2.968-5.963-3.044-6.553-2.608-20.548.19-6.107-.055-7.492-2.08-11.63-1.917-3.916-2.947-4.998-6.18-6.474-3.82-1.746-4.592-1.769-51.306-1.557zm-35.767 3.8c54.762-.21 83.092-.019 84.83.548 3.102 1.024 6.818 6.327 7.577 10.817.289 1.71.125 5.611-.364 8.67-1.063 6.653-.133 12.397 3.064 18.946 1.839 3.766 2.094 5.19 1.706 9.47-.52 5.74-1.151 6.764-5.44 8.798-2.813 1.335-8.253 1.488-63.132 1.803-33.028.19-68.74.42-79.358.508-26.076.216-30.12-.128-34.957-2.97-6.264-3.682-7.26-8.972-3.592-19.135 2.084-5.775 2.145-6.447 1.573-17.987-.524-10.579-.421-12.282.87-14.469 2.916-4.929-1.87-4.658 87.223-4.998zm-30.792 24.108c-3.361.08-7.127 1.387-7.752 3.354-.921 2.903.885 4.512 6.046 5.398 4.007.688 4.888 1.136 4.888 2.484 0 2.264-4.872 3.241-8.536 1.711-2.203-.916-2.862-.925-3.597-.04-1.097 1.322.226 2.623 3.315 3.252v-.004c4.322.882 9.23-.003 10.939-1.97 3.44-3.968 1.168-6.915-6.153-7.98-3.093-.45-3.97-.908-3.771-1.957.332-1.755 4.506-2.262 7.116-.866 2.643 1.414 4.345-.079 2.357-2.064-.964-.964-2.835-1.362-4.852-1.316zm20.848.127a15 15 0 0 0-2.362.17c-3.661.548-6.07 2.326-7.967 5.89-1.573 2.952 1.422 7.67 6.01 9.463 3.247 1.27 9.632.561 11.712-1.3 2.056-1.84 3.735-5.245 3.453-7.002-.668-4.165-5.41-7.174-10.846-7.22m23.93.815c-1.39-.019-3.106.135-5.04.477-3.722.658-3.736.674-3.955 4.42-.122 2.068-.427 4.851-.677 6.187-.25 1.335-.014 2.954.518 3.595 1.593 1.918 2.81.752 2.864-2.74.05-3.245.089-3.284 3.566-3.54 2.385-.175 3.52-.648 3.52-1.47 0-.855-1.004-1.208-3.423-1.208-2.782 0-3.367-.27-3.14-1.444.22-1.149 1.219-1.456 4.887-1.496 3.472-.04 4.61-.356 4.61-1.285 0-.946-1.41-1.462-3.73-1.496m12.559.267c-1.222 0-2.413.688-2.926 1.69-.916 1.793-5.192 7.625-6.952 9.485-1.18 1.246-1.318 2.12-.477 2.96.315.315 1.596-.413 2.85-1.613 1.877-1.798 3.142-2.2 7.192-2.305 4.345-.11 5.01.09 5.744 1.747.985 2.231 3.792 2.535 3.786.41-.002-.809-1.615-3.92-3.581-6.92-2.795-4.263-4.024-5.455-5.636-5.455zm-37.058 1.567c1.604-.08 3.3.238 4.847 1.07 3.972 2.138 4.6 5.03 1.64 7.575-4.315 3.71-13.091 1.602-13.091-3.144 0-3.145 3.074-5.316 6.604-5.5m36.986 2.386c.435-.03.85.25 1.46.86.724.723 1.06 1.728.748 2.233v.004c-.59.955-.77.972-3.197.338-1.814-.474-1.87-1.4-.17-2.812.47-.39.82-.6 1.159-.625zm755.123 34.222h.004c.165 0 2.498 1.448 5.185 3.217 4.478 2.947 13.553 8.025 24.193 13.53 2.309 1.195 5.816 3.213 7.793 4.487s5.123 3.156 6.994 4.18a230 230 0 0 1 6.476 3.702c1.692 1.015 3.93 2.236 4.97 2.71 1.038.473 1.89 1.153 1.895 1.51 0 .36.85 1.048 1.885 1.532 1.932.902 12.546 6.41 13.117 6.807v.016c.07.272-.856 2.11-2.132 4.215l-3.448 5.7c-1.398 2.313-6.287 10.86-9.16 16.02-5.004 8.984-9.087 16.106-13.01 22.694-2.236 3.756-4.062 7.087-4.062 7.4 0 .315-1.081 2.148-2.403 4.078s-2.672 4.36-2.997 5.398c-.733 2.34-1.773 2.317-5.513-.133-1.616-1.058-6.716-3.996-11.333-6.525-12.213-6.689-15.67-8.64-26.862-15.165-5.54-3.23-13.097-7.633-16.79-9.782-3.694-2.15-8.32-4.614-10.283-5.475s-3.566-1.978-3.566-2.484c0-.507 1.888-3.87 4.196-7.473 2.309-3.6 4.196-6.71 4.196-6.909s1.44-2.725 3.203-5.618c1.76-2.892 3.454-5.822 3.76-6.515.307-.692 1.488-2.773 2.629-4.62 2.159-3.496 2.62-4.298 7.208-12.583 1.534-2.77 3.714-6.51 4.842-8.312 1.943-3.106 4.802-8.18 7.49-13.296.647-1.23 1.306-2.243 1.497-2.305h.004zm-231.597 20.18c-.947.018-1.882.123-2.716.332-1.073.27-3.093 1.608-4.488 2.97-1.951 1.907-2.536 3.22-2.536 5.701 0 3.694 1.059 5.336 4.622 7.196 2.648 1.383 7.657 1.741 12.065.86 1.885-.377 2.624-.996 2.624-2.197 0-1.344-.372-1.558-1.891-1.096-7.702 2.341-12 1.667-13.833-2.16-2.8-5.85 4.896-11.705 10.656-8.109 2.012 1.256 3.222.24 2.014-1.69-.715-1.143-3.675-1.868-6.517-1.808m-178.656 1.68c-1.952.01-4.126.412-5.646 1.198-3.43 1.773-6.18 6.54-5.518 9.562.532 2.42 2.765 4.943 5.903 6.678v.004c2.78 1.538 9.21 1.188 11.445-.625 2.708-2.194 1.425-3.088-2.546-1.777-4.487 1.48-10.086-.219-11.671-3.54-.952-1.993-.896-2.653.384-4.819 1.673-2.83 5.77-4.54 8.967-3.739 2.814.707 4.337-.202 3.012-1.797-.642-.776-2.377-1.158-4.33-1.148zm211.707 4.972a.53.53 0 0 0-.394.21c-.91 1.18-6.29 9.997-6.297 10.315.004 1 2.623.268 3.054-.855.658-1.716 6.045-1.64 7.982.113 1.368 1.24 1.569 1.248 2.024.06.82-2.138-4.5-9.973-6.37-9.845zm-150.635.004c-1.394.03-2.74.29-3.684.794-1.342.72-1.594 2.698-1.055 8.246.146 1.5 2.618 1.302 2.618-.21 0-1.98 2.344-1.476 3.858.834 1.458 2.225 3.7 2.837 3.7 1.01 0-.6-.388-1.48-.861-1.952-.586-.586-.32-1.349.84-2.397 2.06-1.865 2.118-2.773.307-4.774-.946-1.044-3.4-1.607-5.723-1.55m-23.911.02c-1.673 0-6.96 6.54-7.967 9.858-.707 2.328-.09 2.376 2.67.21 2.595-2.04 8.43-2.309 9.155-.42.523 1.364 3.663 1.768 3.663.47 0-2.232-5.86-10.12-7.521-10.12zm193.196 0-.287 4.276c-.311 4.57.31 5.705 2.25 4.097.958-.795 1.775-.64 3.95.753 1.508.965 3.19 1.76 3.74 1.767 1.892.03 1.963-1.548.128-2.832-1.564-1.095-1.637-1.366-.497-1.803 1.85-.71 2.467-2.71 1.434-4.64-.703-1.315-1.784-1.619-5.79-1.619zm-181.31.88c-.961.04-1.248 1.28-1.506 4.958-.227 3.23-.011 4.23.89 4.23 1.618 0 2.089-.954 2.48-5.024.24-2.498-.007-3.607-.885-3.944-.39-.15-.71-.23-.98-.22m143.273.004c-.737.004-1.595 1.318-2.244 3.744-1.305 4.88-1.273 5.44.272 5.44.704 0 1.636-.94 2.075-2.096.67-1.76 1.342-2.1 4.2-2.1 2.293 0 3.538.413 3.803 1.26l.784 2.515c.216.692 1.017 1.26 1.778 1.26 1.029 0 1.25-.48.865-1.885-.285-1.038-.755-3.304-1.045-5.034-.552-3.3-1.448-3.97-2.587-1.936-.373.666-1.932 1.43-3.47 1.7-2.326.41-2.866.21-3.237-1.208-.294-1.124-.72-1.662-1.194-1.66m31.863.05a3 3 0 0 0-.446.05c-1.216.232-1.563 1.25-1.757 5.172-.214 4.305-.06 4.85 1.26 4.6 1.2-.229 1.549-1.267 1.752-5.174.196-3.787.113-4.662-.81-4.65zm-199.431.07c-.27.03-.526.43-.743 1.26-.35 1.34-1.362 1.965-3.883 2.391-2.93.495-3.612.307-4.837-1.316-1.545-2.048-1.968-1.734-2.85 2.115-.315 1.384-.78 3.216-1.033 4.066-.35 1.168-.08 1.47 1.086 1.245.85-.164 1.552-.86 1.552-1.547 0-.925 1.215-1.31 4.719-1.495 4.158-.22 4.774-.04 5.17 1.47.246.943 1.033 1.715 1.747 1.715 1.068 0 1.21-.779.809-4.404-.39-3.51-1.098-5.563-1.737-5.5m210.103 1.095a4.5 4.5 0 0 1 2.27.533c1.714.916 1.72.983.2 2.094-2.461 1.8-4.61 1.335-4.61-.998 0-.975.946-1.576 2.14-1.63zm-172.543.42c3.249 0 3.987 1.482 1.255 2.52-2.768 1.052-3.544 1.048-4.196-.004-.878-1.42.405-2.514 2.94-2.514zm-25.223.03c.307-.018.547.257.897.81.438.692.802 1.495.809 1.787.018.943-3.326 1.437-3.864.57-.286-.464.102-1.466.866-2.229.61-.61.985-.919 1.29-.938zm175.397.83c.505-.008.922.41.922 1.188 0 .665-.354 1.425-.784 1.69-.998.617-2-.95-1.317-2.058.338-.546.786-.813 1.179-.82m183.492 3.96c-.684.03-.61.51.723 1.484 2.015 1.473 1.715 3.403-1.178 7.606-1.41 2.05-2.317 4.12-2.02 4.604.85 1.373 3.2.538 3.705-1.316.25-.92 1.206-2.912 2.12-4.425 1.419-2.344 2.008-2.678 3.987-2.243 3.739.82 2.738-1.033-2.03-3.754-2.298-1.313-4.427-2-5.306-1.957zm12.63 11.395c-1.138-.04-2.907.42-5.575 1.24-6.334 1.943-7.43 3.523-2.444 3.523 4.215 0 6.727 1.214 6.727 3.247 0 .83.26 1.764.574 2.08 1.055 1.054 1.85-.678 2.357-5.132.394-3.456.256-4.895-1.64-4.958zm-199.565 1.137c-1.574-.09-3.362.008-5.805.281-3.44.386-6.617.802-7.065.922s-2.747-.07-5.108-.42c-5.84-.87-11.047.566-12.102 3.34-.437 1.15-.826 12.441-.855 25.09-.05 22.003-.126 23.018-1.686 23.513-.896.285-1.63 1.198-1.63 2.028 0 1.917 9.79 5.582 17.63 6.602 7.58.986 16.495.985 19.618 0 1.444-.456 4.127-1.007 5.96-1.23 1.83-.222 4.286-.954 5.456-1.628 1.169-.674 4.013-1.929 6.322-2.79 4.425-1.653 5.518-3.646 2.254-4.109l-1.942-.276.39-22.715c.232-13.66.06-23.643-.435-25.055-.948-2.718-3.35-3.287-8.848-2.1-2.644.572-4.58.43-7.624-.552-1.595-.516-2.955-.808-4.53-.9m275.812 1.106c.01 0 .01.003.02.004.377.158.477 3.59.21 7.76-.276 4.268-.588 17.675-.688 29.792-.1 12.116-.39 22.35-.645 22.745-.257.394-8.328.931-17.932 1.193l-17.461.477 2.659-4.764c1.463-2.618 3.143-5.325 3.73-6.017s2.236-3.526 3.668-6.295c1.433-2.769 3.506-6.548 4.606-8.394 2.585-4.339 10.71-18.335 13.72-23.636 6.174-10.868 7.434-12.865 8.11-12.866zm-69.05 1.68c-.826.12-5.128 7.724-5.128 9.086 0 .4.847 1.138 1.886 1.64h.004c1.039.5 2.648.916 3.57.936.702.011 1.09.004 1.159-.133.07-.18-.37-.58-1.368-1.413-2.332-1.945-2.351-2.595-.133-5.414 1.672-2.13 1.692-4.7.03-4.7zm-229.46.456c.743-.04 1.64.215 3.168.748 1.86.648 4.69 1.036 6.29.865 1.603-.17 5.183-.578 7.953-.912 2.77-.33 5.603-.502 6.296-.373.693.13 3.522.708 6.292 1.285 3.275.682 5.763.782 7.112.282 1.624-.604 2.315-.442 3.186.747.612.834.923 2.272.692 3.196s-.5 11.38-.59 23.236l-.17 21.562-2.176.825c-3.447 1.31-7.671 2.454-12.814 3.462-8.284 1.625-24.47.06-29.04-2.8-.826-.52-.992-6.057-.763-25.118l.293-24.45 2.029-1.496c.915-.674 1.502-1.017 2.244-1.06zm-137.82.63c.904.05 1.57.353 2.47.943l2.085 1.367v24.645c0 26.304.19 24.99-3.776 26.166l-5.457 1.624c-2.733.814-8.56 1.48-14.274 1.64-8.167.227-10.68-.03-16.334-1.686-3.674-1.076-7.082-2.506-7.572-3.176-.591-.807-.82-9.244-.686-25.024.193-22.848.267-23.866 1.916-25.213 1.23-1 2.61-1.267 4.852-.922 1.724.267 5.213.406 7.752.318 9.175-.33 12.248-.266 16.513.337 2.69.381 5.963.222 8.617-.415 1.848-.443 2.99-.652 3.894-.604m375.72 3.964c-.848.07-2.374 1.607-4.084 4.267l-2.69 4.184 2.69 1.65c1.479.907 3.224 1.553 3.878 1.433 2.117-.388 1.946-2.288-.281-3.134-2.606-.99-2.643-1.256-.492-3.99.923-1.173 1.68-2.647 1.68-3.278 0-.807-.257-1.17-.701-1.132m9.565 5.066c-1.458.09-2.693 1.111-4.073 3.195-3.168 4.785-3.135 5.935.23 7.76 1.609.872 3.14 1.587 3.407 1.587 1.433 0 3.425-2.424 3.638-4.425.135-1.26.496-2.545.804-2.852 1.115-1.115.52-3.592-1.066-4.44-1.11-.596-2.066-.879-2.94-.825m.019 2.043c.345.002.692.245 1.1.737 1.216 1.464.09 2.402-1.618 1.347-.87-.538-.955-1.006-.302-1.659.287-.285.552-.427.82-.425m-2.603 3.432c.346.003.862.304 1.773.901 1.112.73 2.024 1.656 2.024 2.064h-.004c0 .98-3.963.962-4.57-.018-.258-.42-.244-1.348.03-2.064.225-.588.4-.885.747-.882zm11.876.286c-2.916.18-5.564 2.456-5.564 5.967 0 5 7.205 7.207 11.22 3.436 2.525-2.37 3.4-1.28 2.629 3.283-.642 3.81.718 4.501 3.187 1.62.8-.937 2.587-1.928 3.965-2.204 1.446-.29 2.506-1.036 2.506-1.76 0-1.218-.626-1.22-5.902-.05-.78.173-1.334-.734-1.63-2.669-.303-1.987-.95-3.022-2.024-3.227-.87-.167-2.383-1.19-3.36-2.274-1.431-1.587-3.277-2.234-5.027-2.125zm2.173 2.68c1.31.058 1.63.558 2.013 2.083.426 1.696.176 2.566-.973 3.406-1.945 1.421-2.117 1.415-4.437-.21-1.2-.84-1.822-2.018-1.66-3.15.202-1.422.927-1.86 3.38-2.064.697-.06 1.24-.09 1.676-.07zm-653.258 30.114-.13 3.984c-.071 2.192-.215 5.12-.316 6.505-.1 1.384-.023 2.798.18 3.144.2.346 2.972.63 6.158.63 5.236 0 6-.224 7.95-2.31 2.749-2.936 3.45-5.676 2.097-8.204-1.372-2.562-4.87-3.749-11.026-3.749zm5.456 1.93c.755.03 1.685.226 2.828.553 5.333 1.53 6.65 4.406 3.469 7.586-1.643 1.642-7.407 2.383-8.674 1.116-.308-.308-.56-2.359-.56-4.558 0-3.447.672-4.793 2.937-4.697m38.196 1.02c-3.477.06-6.737 2.405-6.184 8.153 2.057 6.447 9.3 5.233 11.968 2.822 2.388-2.16 2.357-6.603-.067-8.86-1.467-1.367-3.631-2.152-5.717-2.115m-16.636.43c-4.752-.04-6.526 1.016-7.69 4.543-1.384 4.19.426 6.743 5.855 8.245h.004c2.132.59 8.689.597 9.223-5.1.534-5.698-3.3-7.658-7.393-7.688zm32.032.593c-.943-.008-1.928.03-2.91.107-1.008.08-1.473 1.26-1.794 4.518-.238 2.423-.263 4.688-.056 5.034.57.956 2.337.282 3.489-.87.81-.81 1.375-.81 2.674 0 4.483 2.113 6.667 1.948 4.186-.549-1.478-1.488.379-2.28.84-2.566 1.234-.762 1.023-3.419-.363-4.569-.8-.664-3.24-1.078-6.066-1.106zm-15.576 1.557c.91-.05 1.944.237 3.003.98 2.124 1.486 1.74 3.64 1.132 4.772-1.408 2.617-6.77 2.564-7.327-2.125-.22-1.847 1.19-3.528 3.192-3.627m-16.528.37c4.084-.05 6.093 4.703 2.915 6.883-.498.338-1.845.611-2.997.604-6.718-.04-6.637-7.408.082-7.487m31.176.158c.399.011.944.106 1.69.267 3.266.7 3.478.851 2.763 2.008-.305.492-1.665.895-3.023.895-1.94 0-2.47-.374-2.47-1.746 0-1.05.164-1.445 1.04-1.424M7.102 619.48q-.934.03-1.962.148c-2.356.28-4.471.695-4.704.927-.661.661-.535 13.494.144 14.591 1.28 2.07 3.863.102 3.863-2.94 0-1.634.334-1.843 2.31-1.449 1.718.343 3.215-.197 5.84-2.1 3.313-2.399 3.48-2.708 2.676-5.014-1-2.863-3.812-4.287-8.167-4.164zm77.544.706c-2.366 0-3.163.41-3.694 1.89-.558 1.556-.653 7.126-.21 12.164.06.7 1.623 1.05 4.708 1.05 3.498 0 5.025-.408 6.297-1.68 2.138-2.138 2.15-4.722.026-5.86-1.272-.68-1.546-1.444-1.174-3.308.582-2.906-1.305-4.256-5.953-4.256m-46.357.02c-1.562.04-4.218 3.19-6.164 7.308-1.928 4.08-2.302 4.401-5.226 4.543-1.731.08-3.76.185-4.51.225-1.1.06-1.404-.95-1.571-5.21-.228-5.78-.543-6.506-2.51-5.75-1.002.384-1.31 1.68-1.266 5.346.03 2.663-.052 5.573-.185 6.464-.165 1.11.422 1.82 1.86 2.258 1.154.352 3.61.426 5.456.164s4.38-.418 5.63-.359c1.499.08 2.58-.465 3.178-1.577 1.29-2.409 7.173-2.417 7.803-.012.527 2.017 3.955 2.332 3.955.364 0-1.82-5.61-13.786-6.45-13.767zm23.552.82c-1.833 0-1.993.338-1.993 4.158v4.158l-3.894-4.158c-2.124-2.27-4.094-4.127-4.4-4.149h-.006c-1.802.05-2.58 2.051-3.023 7.775-.408 5.278-.28 6.48.692 6.48 2.09 0 3.265-2.358 2.93-5.86-.168-1.768-.122-3.243.093-3.386h.005l.005-.004h.01l.005-.004h.01c.297.05 2.404 2.168 4.724 4.753 5.792 6.454 6.909 5.966 6.87-2.996-.028-6.559-.095-6.766-2.03-6.766zm-54.683.982c1.975-.134 4.002 1.08 4.002 3.222 0 .816-.597 1.717-1.327 1.997-3.424 1.313-7.225-.962-5.723-3.426.697-1.144 1.864-1.712 3.048-1.793m78.292.692c1.227 0 2.1.483 2.1 1.162 0 1.19-2.888 2.39-3.73 1.547-1.192-1.193-.281-2.71 1.63-2.71m-48.027 2.018c.226 0 .439.225.722.67.38.6.695 1.56.702 2.136s-.95 1.05-2.131 1.05c-2.147 0-2.168-.53-.108-3.185.346-.446.588-.67.815-.67m48.058 3.61c.652.007 1.4.141 2.213.425 2.599.905 3.136 2.706 1.045 3.508-2.46.943-4.484.521-5.364-1.122-.907-1.694.15-2.83 2.106-2.81z"/>
</svg>
